<?xml version="1.0" standalone="no"?>
<!DOCTYPE svg PUBLIC "-//W3C//DTD SVG 20010904//EN"
 "http://www.w3.org/TR/2001/REC-SVG-20010904/DTD/svg10.dtd">
<svg version="1.0" xmlns="http://www.w3.org/2000/svg"
 width="660.000000pt" height="664.000000pt" viewBox="0 0 660.000000 664.000000"
 preserveAspectRatio="xMidYMid meet">

<g transform="translate(0.000000,664.000000) scale(0.100000,-0.100000)"
fill="#000000" stroke="none">
<path d="M3110 6554 c-8 -1 -55 -6 -105 -10 -49 -4 -83 -9 -75 -11 8 -1 87 3
175 11 99 8 133 14 90 14 -38 0 -77 -2 -85 -4z"/>
<path d="M3391 6556 c2 -2 65 -6 139 -8 82 -3 113 -2 80 2 -56 8 -227 13 -219
6z"/>
<path d="M3688 6533 c12 -2 30 -2 40 0 9 3 -1 5 -23 4 -22 0 -30 -2 -17 -4z"/>
<path d="M2790 6519 c-276 -56 -544 -136 -707 -210 -159 -72 -219 -102 -312
-153 -115 -64 -297 -188 -409 -279 -104 -85 -345 -326 -427 -427 -11 -14 -38
-48 -61 -75 -22 -28 -56 -72 -74 -100 -19 -27 -42 -59 -52 -69 -10 -11 -20
-28 -24 -38 -3 -10 -9 -18 -12 -18 -4 0 -16 -17 -27 -37 -11 -21 -22 -40 -25
-43 -15 -14 -51 -78 -116 -207 -39 -78 -75 -139 -78 -135 -4 3 -4 -2 0 -12 5
-13 4 -17 -4 -12 -7 4 -10 2 -7 -6 7 -18 -39 -130 -50 -121 -4 5 -5 2 0 -5 4
-8 0 -32 -10 -55 -28 -68 -32 -79 -54 -147 -41 -128 -103 -382 -117 -480 -4
-30 -22 -192 -25 -235 -1 -19 -5 -11 -9 25 l-7 55 -2 -55 c0 -30 -4 -66 -8
-79 -4 -17 -3 -22 5 -17 8 5 12 -4 11 -31 -1 -34 -2 -36 -10 -13 -15 45 -2
-506 15 -610 8 -52 21 -126 27 -163 16 -96 23 -76 8 22 -6 45 -9 84 -6 87 2 3
10 -35 17 -83 6 -48 15 -97 20 -108 4 -11 13 -47 20 -80 19 -93 86 -301 111
-348 10 -18 5 -36 -6 -25 -10 9 -95 262 -96 283 0 11 -3 14 -6 7 -6 -15 26
-142 39 -157 4 -5 8 -15 8 -23 0 -8 7 -28 14 -45 8 -18 24 -60 35 -93 40 -121
174 -394 258 -527 79 -124 95 -148 100 -143 3 3 -15 36 -39 73 -25 37 -47 73
-49 78 -1 6 -7 15 -12 20 -27 32 -153 290 -161 330 -4 17 -3 23 0 15 15 -35
104 -216 113 -230 21 -31 121 -201 121 -205 0 -7 107 -155 135 -188 6 -7 30
-37 53 -67 52 -66 160 -187 262 -294 83 -87 156 -149 329 -278 143 -107 160
-119 164 -116 1 2 9 -3 17 -10 36 -30 196 -120 330 -184 80 -38 156 -76 170
-83 25 -13 100 -42 130 -50 8 -2 47 -15 85 -29 131 -49 423 -119 550 -132 33
-3 74 -8 90 -10 80 -13 486 -16 594 -5 391 42 819 170 1126 337 17 9 57 31 90
48 70 37 322 201 348 228 10 10 31 25 47 33 17 9 30 19 30 24 0 4 21 23 48 42
51 37 275 257 334 329 66 80 189 235 245 309 7 9 13 11 13 5 0 -9 -181 -260
-199 -274 -3 -3 -45 -50 -93 -105 -85 -98 -228 -237 -300 -292 -20 -15 -81
-62 -135 -103 -97 -74 -207 -150 -219 -150 -3 0 -20 -11 -38 -25 -17 -13 -67
-42 -109 -65 -43 -22 -85 -45 -95 -50 -35 -20 -175 -80 -187 -80 -7 0 -24 -9
-37 -20 -14 -10 -28 -17 -31 -13 -4 3 -22 -2 -42 -11 -65 -30 -100 -43 -140
-54 -22 -6 -78 -22 -125 -36 -47 -14 -100 -29 -118 -32 -31 -6 -55 -24 -33
-24 12 0 176 46 201 56 8 4 26 8 40 10 94 13 576 219 601 256 3 6 9 9 13 9 32
-6 364 221 463 317 13 12 26 22 29 22 3 0 22 17 42 38 21 20 58 56 83 78 25
23 72 72 105 110 32 37 78 89 102 114 23 26 42 50 42 53 0 3 12 19 26 34 14
15 53 64 85 108 33 44 64 85 69 92 24 29 140 214 175 278 21 39 41 72 44 75 8
6 81 163 81 173 0 4 -4 7 -10 7 -5 0 -10 -3 -9 -8 2 -12 -13 -52 -20 -52 -3 0
-17 -25 -31 -55 -14 -30 -28 -55 -32 -55 -11 0 -11 0 30 81 21 41 46 93 55
117 9 23 22 42 27 42 7 0 7 -6 0 -20 -6 -11 -7 -20 -3 -20 10 1 79 144 88 182
5 18 3 28 -4 28 -6 0 -10 -3 -9 -8 0 -4 -6 -23 -15 -43 -9 -19 -19 -47 -22
-61 -4 -15 -13 -29 -20 -32 -9 -3 -4 19 14 62 46 112 104 288 132 405 6 26 17
47 25 47 9 0 12 11 9 38 -4 27 -3 30 3 13 5 -16 8 2 8 52 0 47 4 81 12 89 9 9
12 6 13 -17 1 -25 2 -26 6 -7 3 13 0 29 -6 35 -6 8 -6 38 0 88 5 41 13 122 18
180 l10 104 -3 -100 c-2 -64 -1 -90 5 -71 4 16 8 52 9 80 1 122 -20 617 -29
676 -29 188 -55 304 -124 545 -63 223 -208 550 -325 735 -23 36 -49 79 -58 95
-23 41 -155 215 -228 300 -142 165 -453 455 -489 455 -5 0 26 -28 69 -61 182
-145 387 -361 545 -574 24 -33 46 -62 50 -65 23 -21 165 -280 236 -431 161
-344 249 -663 295 -1059 18 -161 15 -541 -6 -704 -19 -147 -67 -381 -96 -473
-11 -34 -20 -67 -20 -74 0 -6 -7 -25 -15 -42 -8 -18 -26 -68 -40 -112 -28 -86
-32 -96 -63 -165 -11 -25 -31 -70 -44 -100 -12 -30 -38 -84 -56 -118 -17 -35
-29 -69 -26 -74 4 -6 3 -8 -2 -5 -6 3 -22 -17 -38 -44 -15 -28 -30 -48 -32
-46 -3 3 8 26 23 53 36 62 111 215 158 323 68 154 135 364 186 581 41 177 60
340 66 580 10 384 -22 624 -132 1000 -110 374 -278 707 -510 1008 -125 163
-420 456 -569 567 -461 342 -943 538 -1496 609 -575 73 -1203 -29 -1735 -283
-434 -208 -790 -505 -1121 -936 -220 -286 -406 -680 -513 -1086 -117 -446
-131 -955 -40 -1428 87 -453 294 -910 586 -1299 279 -370 538 -600 946 -841
352 -207 779 -348 1187 -391 159 -18 521 -18 650 -1 219 28 497 95 695 169
165 62 374 161 494 236 20 12 43 25 52 28 8 3 56 34 105 69 49 34 103 72 121
85 133 91 409 359 536 519 78 99 97 118 97 95 0 -6 -4 -9 -9 -5 -5 3 -12 -3
-15 -13 -4 -10 -19 -32 -34 -48 -47 -49 -82 -100 -74 -108 4 -4 0 -6 -8 -4 -9
2 -14 -4 -14 -14 1 -10 -3 -16 -10 -15 -6 1 -10 -5 -8 -13 2 -8 1 -12 -3 -8
-9 9 -164 -145 -157 -156 3 -5 1 -6 -5 -3 -6 4 -21 -5 -33 -18 -13 -14 -20
-25 -15 -25 5 0 -2 -11 -15 -25 -12 -13 -26 -23 -30 -22 -14 4 -90 -64 -84
-75 4 -7 2 -8 -4 -4 -15 9 -84 -43 -75 -57 3 -6 1 -7 -6 -3 -15 10 -43 -13
-34 -27 3 -6 1 -7 -5 -3 -7 4 -12 2 -12 -5 0 -7 -3 -9 -6 -6 -4 4 -25 -8 -47
-26 -45 -35 -53 -41 -117 -75 -24 -13 -48 -28 -54 -33 -66 -53 -79 -62 -72
-51 4 6 4 12 -1 12 -11 -1 -44 -26 -46 -37 -1 -4 -9 -7 -17 -6 -8 1 -20 -7
-28 -18 -7 -11 -19 -18 -25 -17 -22 4 -87 -23 -84 -35 1 -7 -7 -12 -19 -12
-25 0 -126 -45 -136 -61 -5 -7 -16 -10 -26 -7 -11 2 -26 -3 -35 -12 -9 -9 -22
-13 -28 -9 -7 4 -9 3 -6 -3 8 -13 -18 -24 -38 -17 -8 4 -15 1 -15 -6 0 -7 -7
-10 -16 -6 -8 3 -13 2 -10 -3 3 -5 -11 -9 -31 -8 -20 1 -38 -4 -40 -10 -3 -7
-11 -9 -20 -6 -12 5 -14 3 -8 -6 5 -10 2 -11 -12 -7 -11 4 -40 -3 -66 -14 -26
-12 -51 -18 -57 -15 -5 3 -26 -2 -47 -11 -21 -10 -54 -18 -73 -19 -78 -4 -142
-18 -128 -27 9 -7 5 -8 -12 -4 -30 7 -145 -5 -132 -13 6 -3 -27 -5 -71 -4 -61
1 -70 -1 -37 -5 25 -4 -76 -7 -225 -7 -148 0 -252 3 -230 7 25 4 12 5 -35 3
-41 -2 -69 -1 -62 3 7 5 -34 14 -92 21 -58 7 -110 9 -117 5 -7 -4 -9 -3 -5 4
4 7 -11 13 -41 18 -27 3 -86 17 -132 30 -46 14 -94 22 -105 18 -17 -4 -18 -3
-6 6 12 9 9 10 -15 6 -24 -5 -27 -4 -15 5 12 9 11 10 -7 6 -12 -3 -24 0 -26 6
-2 6 -20 11 -40 11 -19 0 -34 3 -31 7 6 11 -34 22 -47 13 -8 -5 -9 -3 -4 6 6
10 3 12 -13 8 -12 -4 -20 -3 -18 1 3 4 -23 18 -57 31 -34 13 -100 41 -145 62
-46 21 -94 40 -105 42 -35 7 -57 18 -52 25 6 11 -54 43 -67 35 -7 -5 -8 -3 -3
6 6 10 4 12 -9 7 -9 -4 -15 -3 -12 1 2 4 -32 30 -77 57 -45 27 -90 55 -99 63
-10 8 -18 12 -18 8 0 -4 -7 -1 -15 7 -8 8 -31 25 -52 38 -21 13 -43 30 -49 38
-6 8 -16 11 -23 7 -7 -5 -10 -2 -9 6 2 7 -3 12 -9 11 -7 -2 -12 2 -10 8 1 6
-14 19 -33 30 -19 10 -30 19 -25 19 6 1 1 6 -11 13 -41 24 -367 327 -351 327
3 0 -4 11 -16 24 -12 13 -46 53 -75 89 -30 36 -61 75 -70 86 -10 11 -25 31
-36 45 -10 14 -23 23 -29 19 -6 -3 -7 -1 -3 5 4 7 3 12 -3 12 -6 0 -7 7 -4 17
5 12 3 14 -8 8 -8 -4 -11 -4 -6 0 4 5 -2 18 -12 29 -22 23 -113 171 -138 223
-8 18 -20 31 -26 30 -7 -1 -12 7 -12 18 0 11 -16 49 -35 85 -171 327 -272 631
-326 985 -5 28 -9 55 -10 60 -1 6 -3 35 -4 65 -1 39 -4 49 -9 35 -9 -23 -7
615 2 685 26 204 38 281 47 307 6 16 10 34 9 39 -1 5 0 16 4 24 3 8 15 56 26
105 27 114 47 176 77 243 14 29 22 57 19 63 -4 5 -2 9 3 9 8 0 23 38 22 55 0
3 7 19 15 35 9 17 13 35 10 40 -3 6 -2 10 3 10 5 0 15 15 22 33 47 118 162
348 177 354 7 3 11 9 8 13 -3 5 1 15 9 23 8 7 29 38 47 68 35 58 194 262 287
369 76 86 299 307 339 334 17 11 73 53 125 92 51 39 116 84 143 100 28 15 58
36 68 45 26 24 363 190 473 233 173 68 486 154 642 176 45 7 82 14 82 16 0 7
-62 2 -110 -7z m198 -96 c-10 -2 -26 -2 -35 0 -10 3 -2 5 17 5 19 0 27 -2 18
-5z m252 -18 c71 -37 79 -136 16 -187 -26 -22 -75 -23 -82 -3 -5 11 -12 8 -35
-14 -52 -53 -133 -52 -213 1 -51 33 -65 50 -48 56 12 4 -38 51 -75 71 -74 39
-163 -30 -147 -113 8 -48 44 -77 98 -83 48 -6 62 -26 27 -38 -29 -9 -82 17
-119 59 -100 114 47 280 169 191 19 -13 45 -32 59 -42 15 -11 42 -18 73 -18
46 0 50 2 95 54 66 77 122 97 182 66z m307 -12 c12 -8 38 -34 58 -58 29 -36
43 -45 79 -50 48 -7 75 2 116 41 28 26 109 46 152 37 73 -14 107 -106 73 -195
-6 -15 -1 -14 33 5 33 18 41 28 46 60 4 21 4 42 1 48 -10 15 12 10 25 -6 10
-13 9 -19 -5 -35 -25 -28 -14 -33 26 -13 52 27 201 25 255 -4 61 -33 110 -93
129 -160 35 -118 46 -141 82 -169 87 -66 199 -9 172 89 -18 67 -115 89 -141
32 -14 -32 -28 -32 -28 -1 0 31 43 66 82 66 66 0 118 -57 118 -129 0 -130
-158 -164 -249 -54 -15 19 -36 62 -46 96 -40 142 -82 194 -181 223 -90 26
-172 6 -285 -70 -29 -20 -56 -31 -59 -26 -4 6 -22 2 -45 -10 -45 -23 -66 -25
-83 -8 -20 20 -13 28 26 28 46 0 99 31 112 66 18 46 12 74 -25 111 -33 33 -39
35 -81 30 -30 -3 -58 -15 -84 -36 -47 -38 -80 -51 -126 -51 -48 0 -82 20 -131
78 -48 56 -86 70 -138 48 -73 -31 -47 -124 39 -138 25 -4 32 -26 12 -34 -23
-9 -80 21 -101 52 -21 33 -22 87 -1 119 29 43 119 53 173 18z m181 -5 c17 -14
15 -48 -3 -48 -8 0 -19 9 -25 20 -6 11 -20 20 -30 20 -22 0 -27 16 -7 23 15 6
47 -2 65 -15z m-713 2 c3 -5 -3 -10 -14 -10 -12 0 -26 -9 -33 -20 -12 -19 -38
-28 -38 -12 0 4 7 18 16 30 16 23 58 30 69 12z m504 -125 c35 -80 113 -94 209
-38 51 30 66 24 26 -11 -64 -56 -181 -66 -228 -19 -29 29 -50 77 -42 98 8 23
13 19 35 -30z m-964 -5 c0 -16 -4 -30 -8 -30 -12 0 -20 28 -13 45 9 25 21 17
21 -15z m225 -16 c0 -8 -5 -12 -10 -9 -6 4 -22 -1 -35 -9 -19 -13 -25 -13 -25
-3 0 20 21 37 47 37 14 0 23 -6 23 -16z m1157 1 c8 -21 3 -23 -34 -18 -43 7
-44 33 -3 33 18 0 33 -6 37 -15z m-1458 -5 c41 -11 162 -83 186 -110 25 -28 8
-24 -45 11 -126 82 -209 102 -304 75 -89 -26 -138 -80 -170 -187 -32 -104 -58
-146 -111 -176 -47 -27 -85 -29 -129 -8 -61 29 -81 95 -50 161 31 66 88 90
148 63 22 -11 53 -66 42 -77 -8 -7 -26 8 -26 22 0 15 -42 36 -71 36 -33 0 -79
-56 -79 -97 0 -52 36 -83 99 -83 42 0 55 5 85 33 27 26 40 52 63 127 24 82 34
101 73 140 68 68 191 98 289 70z m-359 -95 c0 -40 -9 -44 -28 -14 -11 18 -11
23 5 35 24 18 23 19 23 -21z m360 -3 c52 -39 25 -133 -33 -118 -36 9 -34 25 4
38 37 13 37 45 -2 67 -53 30 -139 -11 -173 -84 -16 -33 -36 -47 -36 -25 0 20
38 85 63 108 48 45 127 51 177 14z m1859 7 c42 -25 68 -54 87 -96 17 -40 17
-43 0 -43 -7 0 -19 14 -26 30 -15 37 -71 87 -106 96 -33 9 -100 -12 -108 -32
-8 -20 11 -44 34 -44 24 0 32 -11 19 -27 -26 -31 -89 6 -89 51 1 72 114 111
189 65z m225 -14 c-9 -14 -18 -25 -20 -25 -2 0 -4 11 -4 25 0 18 5 25 20 25
20 0 20 -1 4 -25z m-1371 -12 c-13 -2 -35 -2 -50 0 -16 2 -5 4 22 4 28 0 40
-2 28 -4z m437 -2 l45 -8 -40 -1 c-22 0 -65 3 -95 8 l-55 7 50 1 c28 0 70 -3
95 -7z m30 -27 c69 -8 170 -25 225 -37 55 -11 116 -21 135 -20 27 1 31 -1 15
-7 -16 -7 -16 -9 -3 -9 9 -1 85 -24 170 -52 160 -54 303 -116 428 -189 69 -39
298 -188 310 -200 3 -3 39 -32 80 -65 422 -338 758 -877 894 -1433 57 -231 71
-362 70 -657 0 -216 -4 -285 -22 -410 -78 -522 -258 -943 -576 -1345 -56 -70
-298 -319 -376 -386 -89 -76 -172 -134 -182 -128 -6 4 -8 3 -5 -3 13 -22 -366
-243 -518 -303 -125 -50 -252 -89 -268 -84 -12 4 -17 2 -13 -4 7 -11 -91 -38
-101 -28 -3 3 -11 1 -18 -4 -6 -5 -70 -21 -141 -36 -106 -21 -167 -27 -340
-31 -284 -8 -380 3 -707 77 -132 29 -313 92 -328 113 -3 5 -10 8 -15 7 -31 -4
-379 168 -406 201 -10 12 -18 18 -18 15 0 -18 -287 195 -382 283 -103 95 -267
272 -268 289 0 6 -7 12 -16 12 -10 0 -14 5 -10 16 3 8 2 13 -3 10 -5 -3 -21
13 -36 37 -15 23 -38 53 -50 67 -31 35 -98 136 -126 190 -13 25 -26 47 -31 50
-12 9 -122 245 -163 350 -88 225 -145 442 -172 653 -20 161 -23 583 -4 732 95
768 540 1492 1171 1907 104 68 313 180 428 229 417 179 915 249 1372 193z
m440 -34 c0 -5 -5 -10 -11 -10 -5 0 -7 5 -4 10 3 6 8 10 11 10 2 0 4 -4 4 -10z
m-2350 -160 c0 -5 -11 -10 -25 -10 -65 0 -100 -96 -52 -140 39 -38 137 -8 137
42 0 10 7 18 15 18 18 0 18 1 5 -37 -12 -32 -72 -73 -108 -73 -55 0 -102 48
-102 105 0 34 27 80 54 94 27 13 76 14 76 1z m3251 -19 c22 -22 29 -39 29 -67
0 -98 -97 -149 -169 -88 -17 14 -31 33 -31 43 0 9 -5 22 -12 29 -9 9 -6 12 14
12 21 0 25 -4 21 -19 -6 -24 33 -52 76 -53 43 -1 71 27 71 72 0 43 -21 67 -68
76 -39 8 -32 24 9 24 20 0 40 -10 60 -29z m266 -153 c41 -24 92 -82 109 -124
9 -21 14 -72 14 -139 0 -58 2 -105 5 -105 3 0 17 8 31 17 32 21 106 21 154 0
44 -18 103 -78 126 -126 25 -52 29 -127 10 -191 -9 -29 -16 -60 -16 -67 0 -30
90 -110 167 -148 88 -44 172 -121 198 -181 26 -60 45 -135 45 -179 0 -40 -31
-105 -50 -105 -15 0 -13 7 11 40 30 40 22 126 -19 213 -39 83 -83 126 -184
179 -46 23 -102 62 -125 85 -26 26 -43 37 -43 27 0 -23 28 -85 55 -120 34 -44
31 -54 -4 -20 -39 37 -70 110 -73 172 -1 27 6 84 15 127 21 93 13 134 -36 198
-56 73 -142 103 -211 74 -37 -16 -38 -18 -33 -56 10 -74 83 -139 126 -112 25
16 25 49 0 72 -22 20 -22 21 -2 21 22 0 47 -24 57 -56 10 -32 -28 -74 -67 -74
-99 1 -159 115 -163 312 -1 59 -7 122 -13 141 -23 70 -122 135 -187 122 -65
-12 -95 -87 -52 -132 41 -43 119 -15 103 37 -5 16 -3 21 6 18 8 -3 15 -18 17
-35 2 -24 -3 -36 -24 -52 -71 -56 -166 10 -149 102 17 88 113 119 202 65z
m-3717 5 c40 -27 49 -45 50 -91 0 -95 -124 -141 -163 -60 -12 25 -13 36 -4 53
11 19 12 18 15 -10 9 -84 122 -66 122 19 0 41 -33 72 -86 82 -48 9 -119 -29
-158 -84 -31 -44 -31 -44 -31 -180 -1 -125 -3 -142 -26 -192 -14 -30 -41 -70
-60 -88 -28 -28 -40 -32 -73 -30 -53 4 -81 40 -66 84 6 17 22 36 35 42 34 16
38 3 7 -23 -29 -25 -25 -46 11 -69 37 -24 116 41 137 112 8 31 7 34 -23 52
-66 41 -158 20 -221 -50 -55 -61 -63 -106 -37 -221 23 -105 19 -165 -19 -239
-21 -41 -60 -84 -68 -76 -3 4 6 19 20 34 27 29 58 100 58 132 0 15 -11 7 -47
-31 -25 -27 -57 -52 -70 -55 -12 -4 -23 -9 -23 -13 0 -4 -24 -17 -54 -30 -62
-26 -155 -116 -180 -176 -10 -24 -16 -68 -16 -121 0 -73 3 -85 20 -96 23 -15
26 -28 6 -28 -29 0 -46 47 -46 128 0 68 4 87 30 139 40 79 117 151 216 201 83
41 164 116 164 149 0 10 -7 43 -15 73 -31 116 -11 194 69 268 41 38 96 62 141
62 11 0 40 -9 64 -20 24 -11 44 -20 45 -20 1 0 0 49 -2 109 -3 94 -1 113 17
147 27 51 50 77 96 108 46 32 126 36 165 9z m-370 -233 c0 -12 -9 -24 -22 -29
-31 -12 -33 -7 -11 23 22 31 33 33 33 6z m4349 -35 c-11 -10 -47 8 -52 25 -8
30 4 32 31 5 14 -14 23 -27 21 -30z m-4127 20 c11 -14 28 -25 39 -25 10 0 19
-5 19 -11 0 -7 -10 -9 -24 -7 -19 4 -26 0 -30 -19 -8 -31 -25 -30 -19 2 3 13
0 38 -5 55 -13 37 -6 38 20 5z m3865 -72 l-4 -28 -7 31 c-6 25 -12 30 -27 27
-10 -3 -19 -1 -19 5 0 5 11 13 25 16 14 4 26 12 26 19 1 6 4 0 6 -15 2 -16 3
-40 0 -55z m-4178 -370 c-13 -16 -25 -30 -26 -32 -2 -2 -3 5 -3 16 0 11 10 25
23 31 32 16 33 15 6 -15z m4501 7 c16 -12 22 -22 15 -28 -6 -6 -18 1 -33 19
-27 33 -19 37 18 9z m-4720 -19 c0 -14 -114 -121 -118 -111 -5 13 44 86 70
104 25 18 48 21 48 7z m4977 -9 c34 -26 83 -93 77 -104 -3 -5 -23 9 -44 31
-21 22 -50 47 -64 56 -14 10 -26 21 -26 26 0 15 34 10 57 -9z m86 -330 c9 -8
17 -27 16 -41 0 -25 -1 -25 -9 -4 -19 46 -82 54 -95 12 -10 -31 3 -68 32 -93
14 -12 24 -28 21 -36 -7 -23 -68 41 -78 83 -11 50 -3 75 29 92 28 15 56 11 84
-13z m-5103 -1 c22 -43 10 -102 -33 -148 -33 -37 -40 -14 -7 23 49 57 36 131
-22 122 -14 -2 -29 -15 -39 -35 -20 -39 -31 -33 -18 10 11 38 24 47 71 47 27
0 40 -5 48 -19z m-132 -259 c2 -104 2 -109 -27 -154 -16 -26 -65 -74 -108
-108 -135 -107 -173 -163 -173 -260 0 -68 30 -144 75 -192 33 -36 46 -35 90 5
44 40 57 97 30 127 -19 21 -38 17 -72 -13 -29 -26 -30 -8 -2 27 24 30 63 34
79 9 9 -14 10 -5 5 37 -7 65 -25 84 -74 76 -33 -5 -33 -5 -16 14 38 42 104 7
106 -54 0 -17 3 -57 5 -89 8 -79 0 -104 -48 -148 l-41 -37 27 -66 c29 -74 30
-85 16 -138 -23 -81 -100 -131 -167 -107 -46 15 -72 96 -41 127 15 15 64 16
73 2 3 -5 -3 -10 -14 -10 -36 0 -51 -12 -51 -41 0 -84 140 -75 174 12 31 78
12 138 -77 238 -88 98 -120 217 -83 306 21 51 73 115 129 160 99 80 129 109
147 144 23 47 25 62 16 144 -6 49 -5 71 4 82 7 8 13 15 14 15 0 0 2 -48 4
-108z m5283 11 c-2 -65 1 -89 17 -124 26 -54 53 -88 59 -73 2 7 20 10 48 6 41
-4 45 -2 57 22 9 22 9 32 -1 48 -15 24 -7 36 13 19 21 -17 24 -51 9 -83 -16
-33 -48 -43 -87 -28 -29 11 -50 5 -30 -8 105 -70 189 -162 213 -231 16 -49 14
-162 -4 -205 -9 -21 -42 -66 -75 -101 -32 -34 -65 -76 -74 -93 -29 -57 -14
-144 32 -185 30 -27 94 -34 115 -12 34 33 15 85 -30 85 -13 0 -23 4 -23 9 0
15 29 21 55 11 73 -28 33 -150 -49 -150 -116 0 -175 145 -110 273 l25 52 -39
35 c-54 47 -62 67 -62 148 0 76 14 130 38 150 20 15 64 16 80 0 20 -20 14 -28
-15 -22 -20 3 -35 -2 -53 -18 -14 -13 -26 -27 -26 -33 -1 -5 -4 -29 -8 -52
l-6 -42 24 24 c14 14 33 25 42 25 26 0 54 -30 54 -59 l0 -25 -16 22 c-11 15
-25 22 -49 22 -29 0 -36 -4 -41 -25 -7 -28 15 -68 53 -98 13 -10 29 -25 37
-33 12 -12 20 -7 55 33 113 127 83 292 -74 410 -101 76 -124 101 -157 170 -28
58 -29 67 -22 130 4 38 7 74 5 82 -1 7 4 11 11 9 10 -4 12 -25 9 -85z m-5474
-111 c-41 -45 -5 -89 62 -77 33 6 35 5 20 -10 -22 -22 -85 -24 -106 -3 -30 31
-13 108 25 108 13 0 13 -2 -1 -18z m134 -249 c-5 -34 -9 -41 -21 -33 -12 8
-12 14 3 46 22 45 26 42 18 -13z m5399 21 c13 -33 13 -54 0 -54 -5 0 -10 11
-10 24 0 14 -4 28 -10 31 -13 8 -13 25 0 25 6 0 15 -12 20 -26z m-5611 -493
c12 -16 21 -40 20 -53 0 -23 0 -23 -9 -1 -10 25 -39 43 -69 43 -12 0 -21 6
-21 13 0 38 52 37 79 -2z m5879 7 c2 -11 -6 -18 -28 -23 -17 -4 -40 -16 -50
-28 l-20 -21 0 21 c0 34 39 75 69 71 14 -2 27 -10 29 -20z m-5741 -343 c41
-47 23 -154 -29 -171 -26 -8 -61 28 -51 53 5 14 7 14 15 -1 12 -21 54 -21 62
0 8 20 8 68 0 89 -4 8 -22 22 -41 30 -36 15 -72 20 -60 9 3 -4 -8 -16 -26 -28
-58 -40 -77 -80 -77 -165 1 -122 50 -205 155 -258 58 -30 137 -108 167 -167
62 -120 57 -205 -20 -366 -27 -57 -36 -88 -36 -131 -1 -108 73 -198 152 -184
41 7 41 1 0 -19 -35 -18 -62 -21 -53 -6 3 6 -1 10 -9 10 -9 0 -16 4 -16 8 0 5
-11 14 -25 20 -14 6 -24 15 -24 19 1 5 -6 26 -17 48 -13 27 -19 62 -19 110 0
59 5 80 32 133 63 125 74 222 35 311 -9 20 -16 39 -16 44 -2 18 -101 117 -112
113 -8 -3 -17 0 -21 7 -7 12 -62 50 -73 51 -3 1 -18 17 -35 36 -16 19 -33 37
-37 40 -8 6 -49 110 -44 110 3 0 1 14 -4 30 -21 75 27 200 93 241 43 27 103
20 134 -16z m5672 7 c14 -10 37 -39 51 -63 22 -38 25 -56 25 -139 0 -84 -3
-101 -27 -146 -27 -51 -86 -107 -147 -138 -92 -48 -181 -190 -181 -289 0 -53
11 -89 81 -273 l23 -62 -29 -71 c-15 -39 -32 -71 -37 -71 -5 0 -7 -4 -4 -9 6
-9 -25 -38 -61 -58 -16 -9 -30 -9 -60 -1 l-38 12 48 7 c27 4 57 15 67 24 10 9
23 14 28 11 5 -3 9 0 9 7 -1 6 12 39 27 72 33 72 31 101 -13 197 -43 93 -64
181 -57 239 14 106 104 243 188 285 110 56 170 146 171 257 0 79 -23 136 -73
176 -69 56 -140 34 -140 -43 0 -23 5 -47 12 -54 20 -20 55 -14 63 11 l8 22 4
-23 c5 -27 -22 -62 -48 -62 -30 0 -59 52 -59 107 1 50 11 71 45 91 27 17 92 8
124 -16z m-6052 -94 c-2 -24 -4 -7 -4 37 0 44 2 63 4 43 2 -21 2 -57 0 -80z
m17 -168 c3 -58 2 -66 -4 -35 -9 42 -13 121 -6 114 3 -2 7 -38 10 -79z m359
-20 c15 -12 29 -36 33 -55 7 -37 -12 -108 -27 -99 -5 3 -5 13 1 24 16 30 12
75 -10 100 -11 13 -20 19 -20 14 0 -5 -4 -3 -9 5 -13 20 -55 6 -69 -21 -9 -20
-11 -21 -11 -4 -2 52 65 73 112 36z m5625 8 c7 -7 12 -26 11 -42 0 -23 -2 -26
-7 -13 -4 10 -20 24 -35 32 -16 8 -25 9 -21 3 5 -7 2 -9 -8 -5 -38 14 -62 -51
-44 -118 7 -24 6 -28 -4 -18 -7 6 -15 34 -17 60 -5 42 -1 53 22 81 29 34 79
44 103 20z m-5971 -105 c-3 -10 -5 -4 -5 12 0 17 2 24 5 18 2 -7 2 -21 0 -30z
m398 -223 c30 -58 11 -161 -37 -194 -27 -19 -79 -21 -75 -3 1 6 -3 11 -10 10
-6 -1 -17 5 -25 14 -9 12 -9 15 0 9 6 -4 12 -2 12 4 0 6 -7 13 -15 16 -17 7
-20 59 -5 98 6 18 17 26 32 26 23 -1 23 -1 3 -16 -29 -22 -27 -85 4 -118 72
-77 145 50 96 167 -12 29 3 19 20 -13z m5450 -127 c3 -13 16 -30 29 -38 56
-37 115 40 82 107 -18 36 -13 49 10 26 35 -35 11 -158 -31 -158 -17 0 -17 -2
-5 -10 11 -7 6 -10 -20 -9 -28 0 -31 2 -15 9 18 7 17 8 -9 11 -16 2 -37 15
-47 29 -26 34 -34 107 -18 145 13 29 14 29 16 -30 2 -33 5 -70 8 -82z m-5467
-183 c-14 -22 -26 -25 -48 -10 -12 8 -11 10 7 10 12 0 25 5 28 10 3 6 10 10
16 10 5 0 4 -9 -3 -20z m5513 -14 c-5 -6 -10 -18 -12 -27 -3 -11 -9 -7 -19 15
l-15 32 28 -4 c19 -3 25 -8 18 -16z m-5532 -23 c0 -5 -4 -17 -9 -28 -8 -18 -9
-17 -9 8 -1 15 4 27 9 27 6 0 10 -3 9 -7z m231 -118 c17 -9 39 -33 50 -55 30
-59 26 -119 -12 -193 -28 -53 -32 -73 -32 -132 0 -61 4 -78 32 -127 56 -97
124 -138 228 -138 l49 0 2 42 c4 66 -13 116 -47 133 -33 17 -74 20 -65 5 4 -6
-1 -7 -11 -3 -13 5 -16 3 -11 -10 3 -9 2 -17 -3 -17 -21 0 -9 41 14 51 33 15
73 4 107 -31 26 -26 29 -35 29 -94 l0 -66 44 0 c25 0 47 -4 50 -9 3 -5 -19 -9
-50 -10 -31 0 -62 -5 -69 -11 -13 -11 -74 -9 -105 3 -8 3 -24 7 -35 9 -11 2
-29 11 -39 20 -10 10 -22 15 -26 13 -8 -5 -26 12 -32 30 -1 6 -7 9 -11 7 -5
-1 -6 2 -2 8 3 5 -1 13 -9 16 -9 3 -13 10 -10 15 3 5 1 9 -4 9 -5 0 -17 25
-27 56 -24 75 -17 171 17 239 40 79 42 125 7 179 -38 61 -101 75 -117 26 -3
-9 2 -8 19 3 13 10 28 17 33 17 6 0 0 -7 -12 -16 -26 -18 -28 -41 -5 -66 9
-10 11 -18 5 -18 -15 0 -39 37 -47 73 -13 52 34 73 95 42z m5132 3 c5 -13 -13
-87 -25 -105 -5 -7 -13 -13 -19 -13 -6 0 -4 8 5 18 21 23 22 51 2 58 -8 4 -15
10 -15 15 0 6 9 5 20 -1 12 -7 20 -7 20 -1 0 18 -39 22 -69 6 -41 -21 -63 -57
-61 -100 3 -72 5 -83 14 -82 5 1 11 -4 14 -12 3 -8 0 -11 -7 -7 -17 11 -13 -8
7 -30 44 -47 53 -133 22 -203 -11 -24 -20 -51 -20 -61 0 -10 -14 -28 -30 -40
-17 -12 -28 -25 -25 -30 5 -8 -23 -36 -34 -34 -13 3 -31 -9 -25 -17 6 -11 13
-10 -71 -16 -38 -2 -76 -9 -82 -15 -9 -7 -13 -7 -13 1 0 6 -12 10 -27 9 -16
-1 -46 -1 -68 0 -34 2 -37 4 -21 13 10 6 33 9 52 6 l34 -6 0 71 c0 66 2 72 34
104 36 36 70 43 107 23 17 -9 20 -17 15 -51 -6 -42 -12 -55 -21 -47 -2 3 -1
20 4 37 6 21 6 32 0 32 -6 0 -7 5 -4 11 7 10 -17 9 -65 -2 -28 -7 -51 -57 -55
-120 l-4 -62 63 5 c116 10 201 77 240 191 25 75 21 122 -21 207 -42 86 -46
140 -17 191 30 52 134 93 146 57z m-5535 -4 c-3 -3 5 -27 18 -52 13 -26 25
-58 28 -72 2 -14 2 -19 0 -12 -3 6 -9 12 -14 12 -5 0 -9 9 -9 20 0 11 -9 36
-20 55 -18 33 -19 55 -3 55 4 0 4 -3 0 -6z m588 -273 c3 -6 -5 -15 -17 -22
-65 -35 -85 -95 -47 -143 11 -14 16 -26 10 -26 -17 0 -41 43 -41 73 0 66 72
155 95 118z m4716 -1 c21 -12 54 -68 45 -78 -3 -3 -6 0 -6 7 0 7 -5 9 -12 5
-7 -4 -10 -3 -5 1 11 12 -32 55 -49 48 -8 -3 -14 1 -14 11 0 18 13 20 41 6z
m45 -122 c-6 -32 -35 -73 -44 -63 -3 3 2 13 11 23 9 10 18 31 19 45 1 15 6 27
11 27 5 0 7 -14 3 -32z m325 -20 c-17 -20 -61 -88 -61 -95 0 -11 -104 -163
-112 -163 -10 0 6 33 26 52 7 8 21 30 31 48 10 19 21 37 25 40 4 3 13 17 21
32 48 91 74 130 77 115 2 -9 -2 -22 -7 -29z m-126 -90 c-13 -29 -34 -60 -46
-69 -12 -9 -19 -21 -15 -28 4 -6 1 -11 -6 -11 -13 0 -53 -58 -50 -72 1 -5 -2
-8 -7 -8 -5 0 -18 -16 -30 -35 -11 -19 -25 -35 -32 -35 -6 0 2 17 18 38 16 20
46 63 66 94 21 31 43 63 50 70 7 7 25 34 40 61 37 62 42 60 12 -5z m-4925 -45
c0 -2 -9 1 -20 7 -11 6 -20 18 -20 27 0 12 4 11 20 -7 11 -13 20 -25 20 -27z
m107 -136 c-22 -35 -30 -98 -16 -151 9 -35 25 -61 65 -100 76 -77 121 -90 278
-82 73 4 135 3 155 -3 100 -30 154 -115 176 -281 7 -50 37 -125 63 -154 27
-30 104 -76 128 -76 13 0 26 -4 29 -10 14 -23 -55 -8 -100 22 -27 18 -57 37
-66 43 -27 14 -57 92 -74 189 -20 113 -69 216 -103 216 -6 0 -12 4 -14 10 -6
18 -180 26 -313 16 -33 -3 -43 -1 -30 4 13 6 15 9 5 9 -8 1 -26 4 -40 7 -20 5
-22 4 -10 -6 13 -10 13 -11 0 -7 -8 2 -15 10 -15 17 0 7 -6 15 -14 18 -9 3
-11 0 -6 -9 4 -8 -16 11 -45 41 -58 60 -86 113 -93 175 -5 45 14 113 35 126
20 13 21 11 5 -14z m4409 -12 c32 -79 8 -206 -50 -256 -14 -12 -23 -27 -19
-32 3 -6 1 -7 -5 -3 -7 4 -12 2 -12 -4 0 -6 -4 -9 -9 -6 -5 4 -11 2 -13 -4 -1
-5 -28 -15 -57 -23 -30 -8 -49 -16 -42 -18 8 -3 -21 -5 -63 -6 -42 -1 -76 3
-76 8 0 8 -30 7 -113 -6 -17 -3 -26 -1 -22 5 8 13 3 12 -30 0 -14 -5 -23 -14
-20 -20 3 -5 0 -7 -7 -5 -32 12 -108 -107 -108 -168 0 -73 -67 -236 -106 -260
-7 -4 -19 -13 -26 -20 -33 -32 -129 -57 -216 -56 l-87 2 92 8 c97 9 160 32
221 84 56 47 71 79 97 204 28 137 53 186 117 228 41 28 43 28 207 28 154 0
169 2 214 23 26 13 64 44 85 69 36 45 37 48 37 132 0 47 -4 96 -8 109 -13 36
3 25 19 -13z m-4201 -80 c29 -28 34 -85 10 -105 -21 -18 -19 -29 10 -42 22
-10 30 -8 55 11 24 17 34 19 50 11 11 -6 20 -14 20 -19 0 -16 -29 -33 -47 -28
-14 4 -13 5 5 6 23 1 29 15 11 26 -5 4 -20 -4 -32 -17 -26 -28 -74 -24 -91 7
-6 11 -15 24 -21 28 -7 6 -6 10 1 13 35 15 47 32 40 58 -4 15 -11 24 -16 21
-6 -3 -10 1 -10 9 0 15 -17 21 -50 16 -8 -1 -27 -13 -41 -26 -22 -21 -26 -22
-26 -7 0 10 9 28 20 41 28 31 80 30 112 -3z m4082 10 c23 -16 36 -52 22 -61
-5 -3 -9 2 -9 10 0 18 -22 31 -69 41 -26 5 -32 4 -26 -5 5 -8 4 -11 -3 -6 -15
9 -25 -11 -26 -50 -1 -24 4 -34 17 -38 21 -5 23 -26 2 -26 -8 0 -21 13 -30 30
-13 26 -14 34 -1 64 23 54 78 73 123 41z m-197 -135 c0 -17 42 -28 72 -19 34
9 35 3 6 -22 -26 -21 -66 -24 -103 -7 -26 12 -34 43 -12 51 21 9 37 7 37 -3z
m-3813 -238 c-13 -15 -14 -21 -4 -31 9 -10 8 -11 -5 -6 -10 4 -18 11 -18 15 0
4 -10 11 -22 15 -20 7 -18 9 17 15 22 4 42 8 44 9 2 0 -3 -7 -12 -17z m3892 2
c2 -2 -5 -7 -15 -10 -10 -4 -29 -18 -41 -32 -13 -14 -23 -20 -23 -15 0 6 7 16
16 24 14 11 13 15 -8 31 -23 18 -23 18 22 12 25 -4 47 -8 49 -10z m-3678 -35
c21 -18 21 -20 4 -14 -43 15 -51 15 -70 0 -20 -16 -20 -16 2 -6 34 17 42 12
10 -5 -24 -13 -28 -20 -23 -42 8 -33 59 -82 87 -82 11 0 33 7 49 15 29 15 30
15 30 -5 0 -12 -4 -19 -9 -16 -5 4 -11 1 -13 -5 -5 -14 -61 -14 -97 0 -30 13
-56 54 -65 105 -4 21 1 34 19 52 30 29 46 30 76 3z m3483 -5 c9 -8 16 -29 16
-47 0 -35 -36 -94 -63 -103 -9 -3 -15 -9 -13 -13 3 -4 -20 -4 -51 0 -50 7 -72
19 -73 42 0 10 7 9 42 -9 38 -20 87 -12 115 19 22 24 36 77 21 77 -5 0 -7 4
-3 9 8 14 -29 23 -62 15 -25 -7 -27 -6 -14 9 17 21 65 22 85 1z m-3180 -68 c9
3 16 1 16 -5 0 -15 -53 -14 -68 1 -21 21 -13 31 12 14 14 -9 32 -13 40 -10z
m2856 20 c0 -12 -34 -36 -51 -36 -30 0 -22 15 14 27 17 5 33 11 35 12 1 0 2
-1 2 -3z m-2669 -122 c20 -18 26 -74 8 -74 -7 0 -9 10 -7 24 5 27 -33 56 -75
56 -56 0 -79 -99 -33 -145 53 -52 144 -55 291 -9 139 44 215 18 323 -112 23
-29 42 -61 42 -72 0 -31 97 -120 167 -154 84 -40 191 -49 246 -20 46 25 49 11
3 -17 -41 -26 -140 -29 -194 -5 -80 34 -118 55 -148 84 -18 16 -35 26 -38 23
-3 -4 -6 1 -6 10 0 9 -4 17 -9 17 -5 0 -13 9 -16 20 -4 12 -16 30 -28 42 -12
11 -16 18 -9 14 17 -10 15 2 -3 20 -8 9 -15 12 -15 8 0 -5 -12 11 -27 33 -15
23 -35 44 -46 47 -10 2 -16 9 -13 14 3 5 -17 19 -45 31 -52 23 -90 23 -174 0
-22 -6 -50 -13 -62 -16 -13 -3 -23 -8 -23 -12 0 -3 -37 -6 -83 -6 -88 0 -135
18 -156 59 -16 30 -20 113 -7 130 31 39 100 44 137 10z m2545 5 c8 -6 14 -19
14 -27 0 -12 -4 -11 -16 6 -10 15 -25 22 -47 22 -41 0 -50 -7 -67 -48 -10 -26
-15 -31 -22 -19 -9 18 0 49 13 41 5 -3 6 1 3 9 -12 32 87 45 122 16z m-2396
-79 c24 -15 7 -19 -20 -5 -15 8 -19 14 -10 14 8 1 22 -3 30 -9z m2135 0 c-3
-5 -14 -10 -23 -10 -15 0 -15 2 -2 10 20 13 33 13 25 0z m275 -20 c0 -11 -15
-36 -32 -56 -28 -30 -43 -36 -101 -46 -58 -9 -77 -9 -121 5 -66 21 -69 21 -56
-2 16 -31 11 -83 -14 -131 -28 -56 -57 -72 -118 -67 -26 2 -45 0 -42 -4 3 -5
-2 -6 -11 -2 -13 5 -14 7 -3 14 13 9 11 10 -14 13 -7 0 -14 13 -16 29 -2 20 5
35 27 57 29 29 61 40 61 20 0 -5 -6 -10 -12 -10 -24 0 -68 -47 -67 -71 l1 -24
8 25 c5 16 8 19 9 8 1 -25 35 -40 83 -36 37 3 46 9 72 45 28 40 36 90 24 143
-4 20 -81 40 -126 33 -63 -10 -136 -67 -171 -135 -11 -21 -17 -25 -27 -17 -11
9 -7 18 19 47 126 142 170 154 340 96 77 -26 135 -30 188 -13 39 13 89 60 89
83 0 9 2 16 5 16 3 0 5 -9 5 -20z m-2371 -107 c-38 -99 66 -208 154 -162 22
12 22 12 3 -10 -47 -52 -148 -11 -175 72 -16 46 -3 127 19 127 6 0 5 -12 -1
-27z m-211 -20 c-10 -2 -28 -2 -40 0 -13 2 -5 4 17 4 22 1 32 -1 23 -4z m742
-43 c11 -11 20 -26 20 -32 0 -10 -3 -9 -9 1 -5 8 -14 10 -21 6 -9 -5 -11 -4
-6 3 4 8 -3 16 -19 22 -38 14 -44 12 -15 -6 22 -13 23 -14 3 -9 -24 7 -79 -17
-85 -37 -3 -7 -7 -8 -10 -2 -4 5 3 24 14 42 17 28 25 32 64 32 31 0 50 -6 64
-20z m1102 6 c10 -7 20 -28 23 -47 l6 -34 -18 37 c-12 26 -26 39 -45 43 -32 8
-71 -2 -63 -16 3 -5 -2 -6 -11 -2 -12 4 -15 3 -10 -5 4 -7 3 -12 -3 -12 -6 0
-7 -7 -4 -17 4 -11 3 -14 -5 -9 -18 11 -15 29 8 54 24 25 94 30 122 8z m-1454
-32 c24 -27 28 -51 11 -74 -8 -12 -9 -10 -4 9 5 14 3 21 -3 17 -5 -3 -12 8
-15 24 -5 21 -14 31 -32 36 -14 3 -25 10 -25 16 0 16 44 -2 68 -28z m1415 19
c-7 -2 -19 -2 -25 0 -7 3 -2 5 12 5 14 0 19 -2 13 -5z m-1698 -23 c13 0 16 -3
8 -11 -7 -7 -20 -6 -44 6 -26 11 -28 14 -9 10 14 -2 34 -5 45 -5z m977 -13
c87 -60 145 -142 133 -190 -8 -29 -85 -63 -85 -37 0 6 10 10 23 10 72 1 54 86
-35 166 -50 45 -70 54 -114 49 -37 -4 -37 -4 -9 5 25 8 22 9 -20 5 -51 -5
-111 -47 -98 -69 4 -7 2 -7 -6 0 -10 9 -10 16 1 34 31 53 149 68 210 27z m453
9 c36 -15 76 -73 50 -73 -8 0 -14 3 -13 6 2 17 -3 34 -8 28 -3 -3 -14 2 -25
11 -20 18 -129 27 -129 11 0 -5 -4 -8 -9 -6 -15 4 -111 -94 -117 -119 -3 -13
-10 -21 -15 -18 -5 3 -9 -1 -9 -10 0 -8 5 -16 11 -18 7 -2 5 -9 -5 -17 -14
-12 -16 -10 -16 21 0 27 12 48 54 99 29 36 69 73 87 82 42 20 99 22 144 3z
m881 5 c-7 -11 -66 -20 -66 -10 0 10 20 17 48 18 13 1 21 -3 18 -8z m-496 -15
c0 -2 -8 -10 -17 -17 -16 -13 -17 -12 -4 4 13 16 21 21 21 13z m-683 -32 c-3
-3 -12 -4 -19 -1 -8 3 -5 6 6 6 11 1 17 -2 13 -5z m646 -56 c-8 -16 -35 -8
-29 8 3 9 6 23 6 32 0 12 4 9 14 -8 7 -14 11 -28 9 -32z m32 42 c-3 -5 -12
-10 -18 -10 -7 0 -6 4 3 10 19 12 23 12 15 0z m-985 -82 c0 -16 -30 -8 -40 12
-10 18 -9 19 15 8 14 -6 25 -15 25 -20z m1213 25 c-7 -2 -19 -2 -25 0 -7 3 -2
5 12 5 14 0 19 -2 13 -5z m-1083 -13 c0 -5 -4 -10 -9 -10 -6 0 -13 5 -16 10
-3 6 1 10 9 10 9 0 16 -4 16 -10z m371 -3 c-6 -8 -9 -16 -6 -19 3 -2 -2 -5
-10 -5 -18 0 -19 9 -3 25 16 16 33 15 19 -1z m400 0 c-6 -8 -8 -17 -5 -20 4
-3 -5 -9 -19 -12 -14 -4 -28 -12 -30 -19 -5 -13 -91 -47 -168 -66 -35 -9 -57
-9 -90 0 -42 12 -113 60 -88 60 7 0 21 -8 32 -17 15 -14 37 -18 106 -18 92 1
153 21 231 78 40 30 47 33 31 14z m-276 -7 c-3 -5 -11 -10 -16 -10 -6 0 -7 5
-4 10 3 6 11 10 16 10 6 0 7 -4 4 -10z m420 -19 c-3 -6 -14 -11 -23 -11 -15 1
-15 2 2 15 21 16 32 13 21 -4z m-1460 -1 c8 -13 -5 -13 -25 0 -13 8 -13 10 2
10 9 0 20 -4 23 -10z m835 -93 c0 -9 -51 2 -67 16 -26 20 -12 25 27 9 22 -9
40 -20 40 -25z"/>
<path d="M3150 6379 c-14 -5 -48 -35 -76 -67 l-52 -57 -60 0 -61 0 21 -22 c24
-26 107 -48 146 -38 37 9 72 44 72 72 0 16 6 23 20 23 15 0 20 -7 20 -25 0
-19 5 -25 21 -25 53 0 86 46 63 91 -23 46 -68 65 -114 48z"/>
<path d="M3070 6080 c-443 -46 -841 -189 -1213 -437 -631 -421 -1071 -1145
-1158 -1908 -17 -144 -17 -478 0 -635 14 -133 57 -355 92 -474 101 -343 322
-760 500 -946 14 -14 42 -47 64 -75 21 -27 84 -95 140 -149 55 -55 99 -104 97
-110 -2 -6 0 -8 3 -4 11 11 47 -11 39 -24 -4 -7 -3 -8 4 -4 7 4 12 3 12 -2 0
-5 22 -24 49 -43 27 -18 47 -37 45 -41 -3 -5 -2 -8 3 -6 10 2 113 -63 113 -72
0 -4 13 -13 30 -20 16 -7 28 -15 25 -19 -2 -4 12 -13 31 -20 18 -7 34 -17 34
-22 0 -5 7 -9 15 -9 8 0 31 -15 52 -33 21 -17 31 -23 23 -13 -15 19 -15 19 17
1 18 -10 29 -23 26 -28 -3 -5 4 -6 16 -2 11 3 21 2 21 -3 0 -8 45 -32 155 -82
28 -13 105 -42 173 -65 67 -23 120 -44 116 -47 -3 -4 5 -4 18 -1 19 4 20 3 8
-7 -12 -9 -11 -10 7 -5 19 5 87 -9 153 -33 8 -3 19 -4 23 -3 4 0 16 -3 27 -9
11 -6 36 -12 57 -14 21 -3 70 -10 108 -16 85 -15 569 -22 645 -10 79 13 223
39 235 43 6 2 17 7 25 10 8 3 22 5 30 6 31 0 55 6 61 15 4 4 19 9 35 11 16 1
46 9 66 18 21 10 41 16 45 16 5 -1 25 5 45 14 21 10 42 17 48 17 6 0 18 4 28
10 24 13 159 70 166 70 4 0 39 19 79 41 40 23 77 42 84 42 7 0 10 4 7 9 -3 4
-1 8 5 8 15 0 173 98 202 126 14 13 29 24 33 24 11 0 130 93 196 154 394 364
615 681 775 1110 187 504 224 1124 96 1633 -53 211 -110 363 -217 576 -245
488 -590 848 -1075 1123 -253 144 -559 247 -872 296 -149 23 -521 33 -667 18z
m596 -25 c387 -47 733 -169 1059 -375 249 -158 447 -330 617 -540 173 -213
263 -365 415 -700 67 -146 139 -419 170 -640 23 -173 23 -565 -1 -742 -33
-243 -95 -518 -118 -518 -5 0 -7 -7 -4 -15 3 -9 1 -23 -4 -33 -5 -9 -21 -48
-35 -87 -15 -38 -32 -74 -37 -80 -8 -7 -9 -4 -5 8 4 11 3 16 -4 11 -6 -3 -8
-16 -5 -29 7 -27 -52 -165 -70 -165 -12 0 -43 -46 -57 -82 -12 -32 2 -19 23
21 11 22 25 43 31 47 12 7 -69 -147 -81 -156 -4 -3 -12 -15 -19 -27 -6 -13
-19 -23 -27 -23 -11 0 -14 -6 -10 -16 3 -8 2 -12 -4 -9 -5 3 -15 -7 -22 -22
-7 -15 -18 -32 -25 -36 -8 -5 -11 -12 -8 -17 8 -13 -64 -110 -82 -110 -8 0
-11 -5 -7 -12 4 -7 3 -8 -4 -4 -7 4 -16 -2 -21 -16 -5 -13 -19 -33 -30 -45
-12 -12 -21 -26 -21 -31 0 -5 -13 -19 -30 -32 -16 -12 -28 -26 -25 -30 2 -4
-7 -13 -21 -20 -13 -8 -34 -29 -45 -47 -11 -18 -27 -33 -34 -33 -7 0 -15 -7
-19 -15 -3 -8 -20 -24 -38 -35 -18 -11 -29 -20 -24 -20 5 0 -4 -10 -20 -22
-16 -12 -44 -37 -62 -55 -19 -18 -37 -33 -41 -33 -4 0 -22 -15 -41 -33 -18
-17 -30 -26 -26 -19 7 11 4 11 -12 1 -12 -7 -18 -17 -16 -21 3 -5 2 -7 -3 -6
-10 3 -91 -49 -136 -87 -30 -26 -80 -58 -73 -47 5 8 2 10 -8 6 -9 -3 -13 -10
-10 -15 3 -5 -1 -9 -9 -9 -8 0 -20 -7 -27 -15 -7 -9 -15 -13 -18 -10 -3 3 -15
-3 -26 -13 -27 -24 -60 -37 -50 -19 4 6 -3 2 -15 -11 -12 -12 -27 -19 -33 -16
-6 4 -16 0 -23 -9 -10 -14 -33 -23 -68 -26 -5 -1 -5 -6 -1 -13 4 -6 3 -8 -3
-5 -5 3 -21 0 -36 -8 -15 -8 -27 -11 -27 -7 0 4 -5 -1 -11 -11 -7 -12 -17 -16
-30 -12 -12 4 -29 -2 -45 -14 -15 -11 -30 -18 -35 -15 -13 8 -70 -6 -64 -16 3
-4 -5 -6 -17 -3 -19 4 -20 3 -8 -7 12 -9 8 -10 -20 -5 -27 5 -31 4 -20 -5 12
-8 8 -9 -14 -4 -19 5 -27 3 -23 -3 8 -12 -39 -27 -54 -18 -14 9 -70 -5 -64
-16 4 -5 -8 -6 -27 -3 -26 5 -30 3 -18 -6 12 -9 4 -10 -35 -6 -37 4 -45 3 -30
-4 15 -8 7 -9 -29 -4 -30 3 -46 2 -42 -4 3 -6 -20 -13 -57 -16 -34 -4 -80 -9
-102 -11 -32 -3 -35 -3 -15 4 24 9 24 9 -7 10 -17 1 -33 -3 -35 -8 -2 -5 -54
-5 -120 -1 -64 4 -152 5 -194 2 -46 -3 -75 -1 -71 5 3 5 -10 8 -31 6 -27 -2
-32 -1 -17 5 25 11 -84 24 -128 15 -23 -5 -28 -3 -22 7 6 10 2 12 -18 8 -15
-3 -24 -1 -21 4 4 5 -7 9 -22 7 -50 -4 -75 1 -69 11 4 7 -2 9 -18 5 -17 -5
-26 -2 -30 9 -4 9 -14 16 -24 15 -16 0 -16 -1 2 -9 23 -10 10 -12 -22 -4 -13
4 -21 10 -18 14 3 5 -9 13 -27 19 -39 14 -57 14 -38 0 12 -9 12 -10 -3 -5 -10
3 -23 6 -28 6 -6 0 -8 4 -4 9 7 12 -61 35 -76 25 -8 -5 -9 -3 -4 6 6 10 4 12
-9 7 -10 -4 -15 -3 -11 3 3 6 0 10 -7 11 -60 4 -100 17 -92 31 5 8 1 9 -10 5
-18 -7 -61 15 -50 26 3 3 -2 3 -13 1 -10 -3 -27 2 -38 11 -11 9 -14 13 -6 9 9
-4 12 -3 8 4 -4 5 -16 8 -27 5 -12 -3 -28 5 -46 23 -15 16 -24 23 -20 16 5 -9
-7 -6 -32 7 -22 11 -42 28 -46 37 -3 9 -12 14 -20 11 -7 -3 -19 3 -27 14 -7
10 -19 19 -27 19 -15 0 -63 32 -111 75 -19 16 -31 24 -27 18 5 -9 2 -11 -8 -7
-9 3 -14 11 -13 17 1 7 -4 11 -10 10 -7 -2 -13 2 -13 8 0 5 -5 7 -10 4 -6 -4
-9 -1 -8 7 2 7 -3 12 -9 11 -7 -2 -13 1 -13 7 0 5 -14 17 -30 25 -17 9 -28 20
-25 24 3 5 -9 14 -25 20 -17 6 -34 21 -40 35 -5 15 -14 26 -20 26 -6 0 -8 -5
-4 -12 4 -7 3 -8 -5 -4 -6 4 -9 11 -6 16 3 4 -2 13 -10 20 -8 7 -15 9 -15 5 0
-5 -9 0 -20 10 -11 10 -17 22 -14 26 3 5 -1 9 -9 9 -8 0 -17 9 -20 21 -4 14
-10 18 -19 13 -7 -4 -10 -4 -6 1 8 9 -20 40 -36 40 -6 0 -11 7 -11 15 -1 8 -6
14 -12 13 -6 -1 -17 5 -25 14 -11 14 -11 16 1 9 9 -6 12 -5 9 5 -3 8 -14 13
-24 11 -16 -2 -17 -1 -4 7 13 10 7 15 -12 12 -5 0 -7 2 -5 7 1 4 -1 7 -4 7
-17 0 -47 38 -42 53 5 11 3 13 -7 7 -8 -5 -11 -4 -7 2 8 12 -39 78 -56 78 -7
1 -11 7 -9 13 3 17 -23 43 -33 34 -5 -4 -5 -1 -1 6 9 14 -12 45 -24 37 -5 -3
-12 0 -16 6 -4 8 -3 9 4 5 7 -4 12 -4 12 0 0 13 -42 75 -48 70 -3 -3 3 -15 13
-26 10 -11 16 -22 13 -25 -3 -3 -18 14 -33 37 -16 24 -21 37 -12 29 21 -17 22
-7 1 24 -9 14 -20 22 -25 19 -5 -3 -6 3 -2 12 5 13 3 15 -7 9 -9 -5 -11 -4 -6
3 8 13 -12 57 -21 48 -3 -3 0 -12 7 -21 7 -8 8 -15 2 -15 -13 0 -23 26 -16 43
6 18 -40 99 -51 90 -4 -5 -5 -3 -1 4 8 15 -15 67 -24 53 -4 -6 -12 1 -19 16
-11 24 -10 26 3 15 13 -11 13 -9 3 18 -7 21 -14 26 -19 18 -5 -8 -7 -5 -6 8 3
22 -102 349 -109 341 -3 -3 0 -21 7 -41 7 -20 10 -38 7 -41 -2 -3 -11 16 -19
41 -9 25 -11 48 -7 51 5 3 9 13 9 22 0 13 -2 14 -9 4 -6 -10 -10 -7 -15 13 -4
15 -5 30 -1 33 3 3 5 -1 5 -8 0 -7 3 -11 6 -8 3 3 -5 50 -18 103 -18 77 -24
93 -30 74 -4 -14 -5 -3 -2 26 4 37 2 46 -6 35 -8 -11 -9 -3 -4 33 3 26 2 47
-2 47 -5 0 -8 20 -6 45 2 25 0 45 -4 45 -5 0 -8 37 -7 82 0 44 -2 75 -7 69 -5
-10 -9 -9 -13 3 -3 8 -2 18 3 21 6 4 10 38 10 76 0 44 -4 68 -10 64 -6 -4 -10
15 -10 49 0 30 5 58 11 62 8 5 10 -3 7 -25 -3 -18 -1 -34 4 -37 4 -3 9 19 10
48 1 29 5 -48 8 -172 8 -244 29 -391 89 -625 129 -506 334 -869 696 -1231 258
-258 510 -427 875 -587 117 -51 381 -123 560 -153 131 -22 467 -30 627 -15
458 42 967 260 1338 572 524 440 848 1020 950 1699 24 166 30 497 12 670 -34
310 -98 549 -220 815 -89 197 -169 333 -293 500 -302 408 -801 758 -1284 904
-502 151 -928 158 -1436 26 -155 -41 -382 -128 -499 -190 -353 -190 -551 -346
-790 -621 -93 -107 -105 -123 -105 -133 0 -5 -3 -11 -8 -13 -4 -1 -25 -28 -47
-58 -22 -30 -43 -56 -47 -58 -5 -2 -8 -8 -8 -14 0 -6 -18 -37 -40 -70 -22 -33
-40 -65 -40 -70 0 -5 -8 -22 -18 -36 -47 -68 -197 -416 -219 -509 -3 -13 -10
-23 -15 -23 -6 0 -7 -13 -3 -31 6 -24 4 -30 -6 -24 -9 6 -11 3 -6 -9 4 -9 0
-47 -8 -84 -16 -79 -45 -289 -46 -347 -1 -38 -2 -38 -9 -10 l-7 30 -7 -30
c-14 -56 -16 -50 -10 40 3 50 9 94 12 100 3 5 5 32 4 60 0 30 2 44 7 36 6 -10
10 -10 16 -2 4 7 2 18 -5 26 -8 10 -6 33 10 97 12 46 25 103 30 128 13 62 53
184 63 188 4 2 4 8 1 13 -3 6 -2 15 3 22 5 7 24 48 41 92 180 461 552 927 952
1192 311 205 585 321 925 392 109 22 295 48 390 55 100 6 363 -4 491 -19z
m-318 -301 c20 -148 80 -241 188 -291 55 -25 209 -62 259 -63 20 0 26 -3 17
-9 -7 -4 -41 -7 -75 -5 -34 1 -53 -1 -43 -5 15 -6 2 -11 -45 -20 -76 -15 -183
-65 -208 -97 -10 -13 -21 -21 -24 -18 -12 12 81 85 137 108 34 14 52 25 40 26
-12 0 -54 -16 -93 -36 -76 -38 -115 -79 -152 -159 -20 -42 -27 -113 -9 -85 6
9 10 10 10 3 0 -6 -5 -15 -10 -18 -6 -4 -8 -10 -6 -14 3 -4 1 -13 -3 -20 -5
-7 -12 15 -19 54 -20 125 -84 211 -192 264 -50 24 -64 26 -168 24 -125 -1
-142 11 -30 22 83 8 207 46 252 77 40 28 76 66 76 80 0 6 3 8 6 5 4 -4 -1 -18
-10 -31 -20 -31 -21 -42 -1 -26 38 32 60 144 76 404 2 21 6 -8 27 -170z m-381
-370 c-3 -3 -12 -4 -19 -1 -8 3 -5 6 6 6 11 1 17 -2 13 -5z m129 -31 c30 -14
52 -28 50 -30 -2 -2 -25 7 -52 20 -27 14 -56 27 -64 30 -10 4 -11 6 -2 6 7 1
38 -11 68 -26z m306 -142 c-6 -3 -16 -19 -22 -35 -6 -16 -13 -26 -16 -23 -3 3
4 24 17 47 13 23 25 36 27 30 3 -7 0 -15 -6 -19z m-194 -360 c2 -76 -1 -128
-8 -135 -7 -7 -11 27 -12 110 l-2 119 -3 -99 -4 -98 -82 -102 c-46 -55 -108
-131 -138 -167 -30 -37 -85 -104 -123 -150 l-69 -84 29 -3 c42 -4 121 -31 179
-60 112 -56 214 -202 251 -357 18 -79 15 -281 -5 -325 -11 -24 -11 -24 -6 5
14 69 17 231 6 284 -42 193 -158 348 -301 400 -79 29 -88 26 -15 -5 75 -33
129 -73 181 -138 88 -108 114 -192 114 -364 0 -106 -4 -134 -26 -200 -71 -212
-231 -356 -469 -423 -65 -19 -105 -23 -215 -23 -160 0 -221 14 -354 81 -73 36
-107 62 -172 128 l-82 81 53 70 c29 38 70 89 92 113 l39 44 26 -44 c85 -144
276 -232 457 -210 42 6 98 20 125 31 85 38 206 176 206 235 0 9 4 14 9 11 15
-10 23 85 11 144 -23 121 -87 202 -201 255 -80 36 -148 46 -281 43 l-118 -3
-9 -27 c-6 -16 -15 -28 -21 -28 -21 0 60 131 159 260 53 69 114 150 137 180
22 30 68 88 102 129 34 40 62 78 62 84 0 13 -624 0 -628 -14 -2 -5 -8 -9 -14
-9 -6 0 -7 8 -3 18 18 44 85 315 85 342 0 10 6 20 13 23 6 2 239 4 517 3 l505
-1 3 -124z m757 108 c361 -46 616 -206 757 -476 174 -332 155 -728 -52 -1042
-106 -161 -321 -318 -523 -381 -102 -32 -99 -22 3 14 177 61 285 129 415 260
70 71 100 111 137 181 90 173 118 287 118 477 0 188 -31 331 -95 438 -15 25
-24 36 -20 25 54 -148 73 -209 69 -220 -3 -7 0 -16 6 -20 6 -4 8 -15 5 -26 -4
-10 -3 -24 1 -31 4 -6 7 -82 6 -167 -1 -230 -37 -348 -160 -530 -96 -142 -192
-227 -340 -301 -176 -87 -306 -108 -702 -113 l-225 -2 3 938 c1 600 -1 944 -8
955 -6 11 -9 -310 -10 -938 0 -525 4 -960 8 -967 4 -7 38 -14 77 -16 l70 -3
-85 -2 -85 -2 -1 965 c-1 689 -5 969 -13 979 -6 7 -9 15 -7 17 9 8 574 -2 651
-12z m-648 -101 c-3 -7 -5 -2 -5 12 0 14 2 19 5 13 2 -7 2 -19 0 -25z m0 -300
c-1 -51 -3 -12 -3 87 0 99 2 141 3 93 2 -48 2 -129 0 -180z m-252 -28 c-26
-29 -39 -25 -13 5 12 14 24 23 26 20 3 -3 -3 -14 -13 -25z m252 -317 c-3 -10
-5 -2 -5 17 0 19 2 27 5 18 2 -10 2 -26 0 -35z m-636 -265 c115 -55 201 -156
186 -215 -3 -12 -5 -10 -6 8 -1 35 -51 109 -97 146 -86 67 -144 84 -329 94
l-140 7 156 -2 157 -3 73 -35z m197 -301 c-11 -132 -92 -248 -216 -305 -67
-31 -202 -42 -279 -22 -117 29 -221 103 -286 204 l-31 49 -49 -54 c-26 -30
-71 -84 -99 -121 -28 -38 -55 -68 -60 -68 -11 0 17 -39 66 -94 59 -65 40 -56
-28 14 -62 63 -63 66 -47 86 9 12 63 79 120 148 l104 127 29 -58 c16 -32 48
-77 71 -101 79 -81 252 -142 366 -129 111 13 221 81 277 169 27 43 54 135 54
185 0 18 3 33 6 33 4 0 4 -29 2 -63z m299 -269 c-14 -29 -32 -62 -40 -73 -9
-11 0 14 21 56 20 42 39 75 41 73 1 -1 -8 -27 -22 -56z m-92 -136 l-28 -27 24
31 c13 17 26 30 28 27 3 -2 -8 -16 -24 -31z m-1028 -122 c46 -37 194 -97 273
-110 37 -6 39 -8 14 -9 -64 -2 -233 62 -295 113 -15 11 -38 30 -53 40 -14 10
-26 23 -26 28 0 6 17 -4 38 -21 20 -18 42 -36 49 -41z m893 0 c0 -5 -5 -10
-11 -10 -5 0 -7 5 -4 10 3 6 8 10 11 10 2 0 4 -4 4 -10z m-2213 -47 c-3 -10
-5 -4 -5 12 0 17 2 24 5 18 2 -7 2 -21 0 -30z m2133 -2 c-19 -10 -46 -21 -60
-25 -14 -3 -2 5 25 18 58 28 87 34 35 7z m1173 -38 c-7 -2 -21 -2 -30 0 -10 3
-4 5 12 5 17 0 24 -2 18 -5z m-1308 -13 c-11 -5 -27 -9 -35 -9 -9 0 -8 4 5 9
11 5 27 9 35 9 9 0 8 -4 -5 -9z m1238 3 c-13 -2 -33 -2 -45 0 -13 2 -3 4 22 4
25 0 35 -2 23 -4z m-115 -10 c-27 -2 -69 -2 -95 0 -27 2 -5 3 47 3 52 0 74 -1
48 -3z m-1300 -20 c-32 -2 -86 -2 -120 0 -35 2 -9 3 57 3 66 0 94 -1 63 -3z
m1532 -283 l0 -90 85 0 85 0 0 -45 0 -45 -86 0 -85 0 3 -191 3 -191 29 -25
c30 -25 64 -27 123 -8 21 7 22 5 19 -36 -2 -24 -4 -47 -5 -51 -2 -13 -113 -29
-154 -23 -60 10 -94 30 -114 68 -15 27 -18 65 -21 244 l-4 212 -56 3 c-52 3
-56 5 -58 28 -1 14 -3 32 -5 40 -3 12 9 16 60 18 l64 3 -6 90 -7 89 65 0 65 0
0 -90z m-2479 -85 c105 -36 158 -116 167 -251 l5 -84 -227 0 c-254 0 -243 4
-207 -76 23 -50 93 -112 138 -120 64 -12 132 1 179 35 25 17 48 31 52 31 5 0
21 -13 36 -29 l27 -28 -33 -28 c-59 -50 -114 -69 -219 -73 -80 -4 -104 -1
-141 15 -165 74 -233 275 -152 452 38 84 95 135 184 162 43 13 145 10 191 -6z
m1290 -2 c109 -35 174 -140 167 -270 l-3 -58 -225 -5 -225 -5 3 -30 c4 -40 42
-97 88 -132 31 -23 49 -28 110 -31 74 -4 85 -1 161 44 l32 19 28 -28 c27 -27
27 -29 9 -42 -10 -8 -23 -12 -27 -9 -5 3 -6 -1 -3 -9 3 -10 -11 -22 -43 -38
-42 -21 -62 -24 -163 -24 -99 0 -121 3 -156 22 -62 33 -102 75 -131 140 -24
50 -28 72 -28 155 -1 53 3 94 7 92 4 -3 8 4 8 16 0 20 16 59 29 70 3 3 11 14
17 25 18 33 81 77 136 96 67 23 141 24 209 2z m717 1 c62 -20 108 -64 122
-115 10 -37 14 -168 11 -391 l-1 -108 -60 0 -60 0 0 218 c0 152 -4 224 -13
241 -43 84 -177 92 -253 16 -33 -34 -45 -53 -23 -39 6 3 3 -8 -6 -26 -11 -22
-16 -54 -15 -108 1 -42 1 -128 1 -189 l-1 -113 -54 0 -53 0 -6 153 c-3 83 -6
217 -7 296 -1 80 -3 148 -6 152 -6 10 24 18 66 18 61 -1 70 -7 70 -45 l0 -35
39 31 c71 57 160 73 249 44z m1143 -1 c40 -13 69 -32 111 -73 65 -66 88 -124
88 -228 0 -137 -53 -235 -155 -287 -54 -28 -67 -30 -164 -30 -116 0 -143 9
-208 68 -45 41 -78 99 -93 166 -11 48 -10 80 5 176 13 89 102 183 205 218 35
12 161 6 211 -10z m610 2 c24 -9 55 -24 69 -35 l25 -19 -32 -33 -33 -32 -45
22 c-67 32 -129 30 -166 -7 -16 -16 -29 -37 -29 -46 0 -32 62 -81 125 -99 130
-38 195 -101 195 -189 0 -149 -163 -226 -353 -167 -81 25 -94 38 -73 79 23 43
30 44 84 16 97 -51 189 -40 230 28 32 52 -8 91 -140 138 -112 40 -159 88 -165
171 -6 73 26 134 86 165 53 28 154 31 222 8z m-3363 -112 c23 -60 64 -166 90
-236 l49 -128 27 63 c15 35 31 72 35 83 5 11 14 33 21 50 21 52 60 177 60 192
0 8 5 11 12 7 7 -5 9 -2 5 9 -3 8 0 27 6 41 11 24 17 26 75 26 46 0 62 -4 62
-14 0 -8 -29 -83 -64 -167 -34 -85 -87 -216 -117 -291 l-54 -138 -65 0 -65 1
-34 87 c-30 78 -73 181 -185 440 l-35 82 68 0 68 0 41 -107z m-1129 -32 c11
-30 19 -56 17 -58 -4 -5 -46 93 -46 108 0 20 7 8 29 -50z m951 -826 c0 -11
-12 -15 -45 -15 -43 0 -45 -1 -45 -30 0 -28 2 -30 40 -30 27 0 40 -4 40 -14 0
-9 -12 -13 -37 -12 -37 1 -38 0 -38 -34 0 -34 1 -35 43 -38 64 -5 50 -22 -18
-22 l-60 0 0 98 c0 54 3 102 7 105 3 4 30 7 60 7 40 0 53 -4 53 -15z m186 1
c25 -18 11 -32 -18 -19 -31 14 -71 -1 -66 -24 2 -10 25 -28 51 -40 43 -21 47
-26 47 -57 0 -37 -28 -66 -62 -66 -27 0 -68 22 -68 37 0 10 5 11 19 3 30 -16
78 -12 85 6 7 19 -20 54 -41 54 -18 0 -63 45 -63 63 0 24 40 57 68 57 16 0 37
-6 48 -14z m208 -7 c15 -12 26 -30 26 -45 0 -32 -42 -74 -75 -74 -22 0 -25 -4
-25 -35 0 -24 -5 -35 -15 -35 -12 0 -15 18 -15 105 l0 105 39 0 c24 0 48 -8
65 -21z m192 4 c3 -10 20 -57 39 -105 30 -80 31 -88 15 -88 -11 0 -20 8 -22
22 -3 18 -10 22 -51 24 -42 3 -49 0 -59 -21 -6 -14 -17 -25 -25 -25 -15 0 -17
11 -5 26 5 5 19 38 32 74 13 36 27 75 31 88 10 26 37 29 45 5z m294 -1 c20
-16 21 -20 7 -25 -9 -3 -19 -2 -22 3 -4 6 -24 10 -45 10 -29 0 -43 -6 -54 -22
-41 -58 4 -146 69 -135 16 3 38 8 48 12 10 4 17 3 17 -5 0 -6 -17 -18 -38 -27
-35 -13 -38 -17 -34 -49 3 -25 0 -35 -13 -40 -10 -4 -21 -1 -26 7 -13 20 -11
29 6 29 24 0 18 39 -7 49 -58 22 -88 96 -60 148 32 58 108 81 152 45z m251 -6
c44 -30 55 -71 34 -121 -51 -124 -229 -67 -193 61 22 81 90 107 159 60z m353
10 c45 -19 63 -63 47 -116 -15 -52 -56 -80 -115 -80 l-46 0 0 105 0 105 40 0
c22 0 55 -6 74 -14z m253 2 c-2 -7 -20 -13 -40 -13 -35 0 -37 -2 -37 -32 0
-32 2 -33 40 -33 30 0 40 -4 40 -16 0 -10 -8 -15 -22 -14 -54 5 -59 2 -56 -32
3 -30 6 -33 41 -36 57 -5 44 -22 -18 -22 l-55 0 0 105 0 105 56 0 c40 0 55 -3
51 -12z m313 -3 c0 -11 -11 -15 -40 -15 -39 0 -40 -1 -40 -35 0 -34 1 -35 41
-35 52 0 48 -24 -4 -28 -36 -3 -37 -4 -37 -43 0 -28 -4 -39 -15 -39 -12 0 -15
18 -15 105 l0 105 55 0 c42 0 55 -3 55 -15z m208 3 c-3 -7 -22 -15 -44 -18
-23 -3 -39 -10 -38 -17 1 -7 2 -19 3 -27 0 -9 15 -16 39 -18 51 -4 47 -22 -6
-26 -42 -3 -43 -4 -40 -35 3 -30 6 -32 46 -35 61 -5 52 -22 -13 -22 l-55 0 0
105 0 105 56 0 c40 0 55 -4 52 -12z m196 6 c9 -3 16 -12 16 -20 0 -17 -5 -17
-31 -4 -25 14 -59 -4 -59 -31 0 -14 13 -25 45 -39 59 -25 71 -62 30 -98 -29
-25 -72 -25 -101 -1 -21 17 -6 30 21 17 29 -13 75 -3 75 17 0 18 -15 31 -60
53 -83 40 -23 140 64 106z m244 -11 c2 -9 -8 -13 -32 -13 l-36 0 0 -90 c0 -73
-3 -90 -15 -90 -12 0 -15 17 -15 90 l0 90 -30 0 c-20 0 -30 5 -30 15 0 13 13
15 77 13 50 -2 78 -7 81 -15z m180 -71 c47 -124 47 -122 28 -122 -8 0 -18 11
-22 24 -5 21 -11 24 -51 22 -37 -2 -48 -7 -54 -24 -5 -12 -15 -22 -24 -22 -14
0 -14 4 1 38 9 20 25 62 35 92 11 30 21 61 24 68 11 30 33 5 63 -76z m233 77
c28 -14 14 -30 -16 -19 -29 11 -51 5 -60 -18 -7 -19 10 -37 56 -60 43 -22 52
-64 18 -93 -28 -24 -60 -24 -90 0 l-24 20 50 -2 c47 -2 50 0 50 22 0 19 -10
30 -40 45 -32 17 -41 27 -43 53 -5 49 50 79 99 52z"/>
<path d="M5882 3900 c0 -14 2 -19 5 -12 2 6 2 18 0 25 -3 6 -5 1 -5 -13z"/>
<path d="M5912 3675 c0 -16 2 -22 5 -12 2 9 2 23 0 30 -3 6 -5 -1 -5 -18z"/>
<path d="M5910 3200 c0 -5 5 -10 10 -10 6 0 10 5 10 10 0 6 -4 10 -10 10 -5 0
-10 -4 -10 -10z"/>
<path d="M5911 3124 c0 -11 3 -14 6 -6 3 7 2 16 -1 19 -3 4 -6 -2 -5 -13z"/>
<path d="M5903 3035 c0 -27 2 -38 4 -22 2 15 2 37 0 50 -2 12 -4 0 -4 -28z"/>
<path d="M5891 2964 c0 -11 3 -14 6 -6 3 7 2 16 -1 19 -3 4 -6 -2 -5 -13z"/>
<path d="M5881 2894 c0 -11 3 -14 6 -6 3 7 2 16 -1 19 -3 4 -6 -2 -5 -13z"/>
<path d="M5876 2862 c-2 -4 -7 -25 -10 -47 -7 -45 -2 -38 13 18 9 35 8 46 -3
29z"/>
<path d="M5851 2754 c0 -11 3 -14 6 -6 3 7 2 16 -1 19 -3 4 -6 -2 -5 -13z"/>
<path d="M5803 2575 c-3 -9 -3 -18 -1 -21 3 -3 8 4 11 16 6 23 -1 27 -10 5z"/>
<path d="M5771 2474 c0 -11 3 -14 6 -6 3 7 2 16 -1 19 -3 4 -6 -2 -5 -13z"/>
<path d="M5686 2265 c-9 -26 -7 -32 5 -12 6 10 9 21 6 23 -2 3 -7 -2 -11 -11z"/>
<path d="M5660 2219 c0 -5 5 -7 10 -4 6 3 10 8 10 11 0 2 -4 4 -10 4 -5 0 -10
-5 -10 -11z"/>
<path d="M5646 2183 c-6 -14 -5 -15 5 -6 7 7 10 15 7 18 -3 3 -9 -2 -12 -12z"/>
<path d="M5545 1994 c-15 -25 -25 -47 -23 -49 2 -2 16 18 31 46 35 62 28 65
-8 3z"/>
<path d="M1330 1676 c0 -2 7 -9 15 -16 13 -11 14 -10 9 4 -5 14 -24 23 -24 12z"/>
<path d="M3633 5383 c9 -2 23 -2 30 0 6 3 -1 5 -18 5 -16 0 -22 -2 -12 -5z"/>
<path d="M2156 4809 c-20 -78 -35 -144 -32 -146 3 -3 8 8 11 23 18 81 42 156
82 252 3 6 -1 12 -9 12 -10 0 -26 -42 -52 -141z"/>
<path d="M3151 4900 c-1 -8 -2 -39 -1 -67 1 -51 0 -55 -71 -140 -40 -49 -76
-90 -79 -93 -3 -3 -21 -25 -40 -50 -41 -53 -50 -64 -122 -150 -78 -95 -129
-163 -124 -167 9 -9 54 29 85 72 18 25 36 45 41 45 5 0 11 8 14 18 4 10 22 34
41 53 19 18 35 40 35 47 0 6 5 12 11 12 6 0 9 7 6 15 -4 8 -1 17 5 21 7 5 8 2
3 -7 -4 -8 6 -1 24 16 17 16 29 35 26 43 -2 7 -1 11 4 8 9 -6 77 75 73 87 -1
5 1 6 6 3 5 -3 23 15 41 39 31 43 32 48 28 127 -1 46 -4 76 -6 68z m-1 -154
c0 -2 -8 -10 -17 -17 -16 -13 -17 -12 -4 4 13 16 21 21 21 13z"/>
<path d="M2164 4659 c-3 -5 -14 -9 -25 -9 -10 0 -19 -4 -19 -10 0 -6 112 -10
315 -10 250 0 315 -3 315 -13 0 -13 -20 -41 -85 -117 -145 -170 -362 -467
-350 -478 4 -4 10 -1 12 6 7 17 76 115 153 214 35 46 79 103 98 128 46 60 150
184 201 240 22 25 38 46 34 47 -31 7 -645 9 -649 2z"/>
<path d="M2910 3529 c0 -5 5 -7 10 -4 6 3 10 8 10 11 0 2 -4 4 -10 4 -5 0 -10
-5 -10 -11z"/>
<path d="M2892 3480 c-18 -29 -15 -38 4 -12 9 13 14 25 12 27 -2 2 -9 -5 -16
-15z"/>
<path d="M2037 3456 c-9 -13 -23 -30 -31 -39 -13 -13 -14 -16 -1 -21 8 -3 14
-2 14 2 -4 22 3 33 15 29 11 -4 13 -1 9 10 -5 13 -3 14 15 4 15 -8 22 -8 22
-1 0 5 -7 10 -16 10 -10 0 -14 6 -10 15 8 22 0 18 -17 -9z"/>
<path d="M3121 3454 c0 -11 3 -14 6 -6 3 7 2 16 -1 19 -3 4 -6 -2 -5 -13z"/>
<path d="M2846 3413 c-6 -14 -5 -15 5 -6 7 7 10 15 7 18 -3 3 -9 -2 -12 -12z"/>
<path d="M3103 3403 c-4 -10 -11 -21 -17 -25 -6 -4 -12 -12 -12 -18 -1 -5 -2
-15 -3 -21 0 -5 -6 -7 -11 -4 -6 4 -7 11 -4 17 4 7 2 8 -4 4 -6 -4 -9 -13 -5
-21 3 -8 2 -22 -1 -31 -5 -12 -8 -13 -20 -2 -8 7 -12 17 -9 21 9 15 -31 -10
-50 -31 -18 -19 -18 -20 5 -36 14 -10 17 -16 8 -16 -25 1 -50 26 -50 50 0 22
-2 21 -36 -13 -43 -43 -41 -74 6 -74 24 0 30 5 30 21 0 12 -4 17 -8 11 -4 -5
-16 -11 -27 -13 -18 -2 -18 -1 -3 8 9 6 15 17 12 24 -3 8 0 17 7 21 7 5 10 3
7 -6 -3 -8 5 -18 19 -24 22 -10 23 -11 7 -33 -9 -14 -22 -21 -31 -18 -8 3 -11
1 -8 -4 4 -6 -1 -7 -10 -3 -10 3 -21 0 -27 -8 -8 -11 -9 -10 -4 4 6 19 -9 24
-19 6 -4 -6 -13 -8 -21 -5 -8 3 -14 1 -14 -5 0 -6 -4 -8 -9 -4 -5 3 -12 1 -15
-4 -3 -5 -22 -8 -41 -6 -43 4 -55 -12 -20 -25 35 -13 40 -13 26 4 -10 11 -6
13 21 10 18 -1 39 -3 46 -3 7 -1 10 -6 7 -11 -5 -7 -11 -8 -18 -1 -14 11 -51
-11 -40 -23 4 -4 -5 -2 -20 3 -43 16 -67 12 -27 -5 l35 -14 -40 5 c-76 11 -90
12 -77 8 17 -6 15 -23 -3 -23 -13 0 -14 -2 -3 -14 14 -15 32 -11 22 5 -3 6 5
7 21 3 31 -8 131 22 158 47 11 10 26 15 35 12 9 -4 13 -2 9 4 -4 6 0 16 8 23
11 9 15 9 15 1 0 -7 16 0 35 15 19 14 32 30 29 35 -3 5 1 9 8 9 8 0 19 5 26
12 9 9 6 14 -15 23 -15 6 -23 14 -17 17 6 4 21 1 35 -5 22 -12 26 -9 60 33 45
57 73 110 59 110 -6 0 -14 -8 -17 -17z m-87 -108 c17 -16 14 -18 -10 -9 -9 3
-16 10 -16 15 0 13 9 11 26 -6z m-206 -169 c0 -2 -7 -7 -16 -10 -8 -3 -12 -2
-9 4 6 10 25 14 25 6z"/>
<path d="M2100 3406 c0 -2 8 -10 18 -17 15 -13 16 -12 3 4 -13 16 -21 21 -21
13z"/>
<path d="M2809 3371 c-8 -9 -29 -26 -45 -38 l-29 -23 37 21 c36 20 65 46 57
53 -2 1 -11 -4 -20 -13z"/>
<path d="M1967 3344 c6 -16 4 -17 -9 -6 -12 10 -18 9 -28 -3 -7 -9 -10 -19 -6
-22 4 -4 11 -1 15 6 5 7 13 11 18 8 5 -3 15 -2 21 2 10 6 9 11 -3 21 -13 11
-14 10 -8 -6z"/>
<path d="M2781 3321 c-10 -6 -9 -10 3 -14 8 -3 18 -2 21 3 8 13 -9 20 -24 11z"/>
<path d="M1940 3295 c0 -2 6 -8 13 -14 10 -8 14 -7 14 2 0 8 -6 14 -14 14 -7
0 -13 -1 -13 -2z"/>
<path d="M2603 3263 c9 -2 25 -2 35 0 9 3 1 5 -18 5 -19 0 -27 -2 -17 -5z"/>
<path d="M2023 3216 c71 -63 207 -131 301 -150 84 -17 258 -20 291 -6 13 6
-12 8 -68 4 -49 -2 -104 -2 -123 2 -32 6 -33 7 -17 21 17 13 16 14 -7 9 -35
-7 -70 3 -64 19 5 12 -43 32 -53 22 -2 -3 7 -7 21 -11 17 -4 23 -11 19 -21 -5
-14 -7 -14 -17 0 -9 13 -17 14 -43 5 -23 -9 -37 -8 -53 0 -12 6 -19 14 -16 18
4 3 12 0 18 -6 15 -15 42 -16 33 -2 -3 6 -1 10 5 10 6 0 8 5 5 10 -5 8 -11 7
-21 -1 -11 -9 -18 -8 -32 4 -9 9 -29 14 -43 13 -22 -2 -26 0 -22 18 4 15 2 17
-5 7 -7 -10 -14 -11 -31 -2 -27 15 -27 25 -1 18 12 -3 18 -1 14 5 -3 5 -17 7
-30 4 -19 -5 -31 0 -50 21 -14 15 -33 28 -42 29 -10 1 4 -16 31 -40z m167 -76
c0 -5 -4 -10 -10 -10 -5 0 -10 5 -10 10 0 6 5 10 10 10 6 0 10 -4 10 -10z
m105 -40 c-3 -5 -14 -10 -23 -10 -15 0 -15 2 -2 10 20 13 33 13 25 0z m60 -20
c3 -5 -1 -10 -10 -10 -9 0 -13 5 -10 10 3 6 8 10 10 10 2 0 7 -4 10 -10z"/>
<path d="M2827 3230 c3 -13 0 -20 -8 -20 -10 0 -10 -3 -1 -12 10 -9 16 -8 29
5 11 11 13 17 5 17 -7 0 -12 7 -12 15 0 8 -4 15 -9 15 -5 0 -7 -9 -4 -20z"/>
<path d="M2780 3230 c0 -5 5 -10 10 -10 6 0 10 5 10 10 0 6 -4 10 -10 10 -5 0
-10 -4 -10 -10z"/>
<path d="M2740 3196 c0 -2 9 -6 20 -9 11 -3 20 -1 20 4 0 5 -9 9 -20 9 -11 0
-20 -2 -20 -4z"/>
<path d="M2461 3113 c-13 -11 -10 -12 22 -8 20 2 45 9 55 14 13 8 8 9 -22 8
-21 -1 -46 -8 -55 -14z"/>
<path d="M2354 3113 c10 -11 36 -12 36 -2 0 5 -10 9 -22 9 -12 0 -18 -3 -14
-7z"/>
<path d="M2533 3106 c-30 -9 -54 -36 -33 -36 6 0 10 5 10 10 0 6 10 10 23 10
25 0 54 15 41 22 -5 2 -23 -1 -41 -6z"/>
<path d="M2458 3073 c7 -3 16 -2 19 1 4 3 -2 6 -13 5 -11 0 -14 -3 -6 -6z"/>
<path d="M3828 4943 c6 -2 18 -2 25 0 6 3 1 5 -13 5 -14 0 -19 -2 -12 -5z"/>
<path d="M3923 4933 c9 -2 25 -2 35 0 9 3 1 5 -18 5 -19 0 -27 -2 -17 -5z"/>
<path d="M4450 4758 c0 -2 35 -35 78 -73 71 -64 76 -58 7 8 -31 30 -85 71 -85
65z"/>
<path d="M3644 3994 l-1 -679 91 2 c154 3 223 12 321 43 197 63 340 217 395
425 12 44 28 95 37 114 31 68 -8 293 -72 422 -64 126 -177 225 -319 280 -99
38 -188 55 -336 64 l-115 7 -1 -678z m261 625 c164 -24 285 -82 389 -185 119
-118 171 -253 170 -444 0 -307 -151 -528 -422 -622 -76 -26 -105 -31 -229 -35
l-142 -6 -3 644 c-2 354 -1 650 1 657 4 14 108 10 236 -9z"/>
<path d="M3688 4549 c-8 -143 -6 -1175 2 -1189 11 -18 178 -14 280 6 178 36
337 157 415 316 21 43 35 84 31 93 -3 9 -2 14 2 11 14 -9 35 115 35 205 -1
177 -60 328 -171 437 -69 67 -116 97 -134 86 -7 -4 -8 -3 -4 5 19 30 -187 88
-346 98 l-106 6 -4 -74z m19 -1181 c-3 -8 -6 -5 -6 6 -1 11 2 17 5 13 3 -3 4
-12 1 -19z"/>
<path d="M4666 4515 c4 -8 11 -15 16 -15 6 0 5 6 -2 15 -7 8 -14 15 -16 15 -2
0 -1 -7 2 -15z"/>
<path d="M3390 3531 c0 -5 5 -13 10 -16 6 -3 10 -2 10 4 0 5 -4 13 -10 16 -5
3 -10 2 -10 -4z"/>
<path d="M3401 3414 c0 -11 3 -14 6 -6 3 7 2 16 -1 19 -3 4 -6 -2 -5 -13z"/>
<path d="M4204 3374 c-18 -14 -18 -15 4 -4 12 6 22 13 22 15 0 8 -5 6 -26 -11z"/>
<path d="M3392 3260 c-1 -64 2 -110 7 -105 4 6 5 57 1 115 l-7 105 -1 -115z"/>
<path d="M4410 3275 c-11 -13 -10 -14 4 -9 9 3 16 10 16 15 0 13 -6 11 -20 -6z"/>
<path d="M4370 3250 c-9 -6 -10 -10 -3 -10 6 0 15 5 18 10 8 12 4 12 -15 0z"/>
<path d="M4324 3219 c-3 -6 -17 -8 -29 -5 -26 7 -43 -8 -23 -18 7 -4 -2 -4
-21 -1 -30 5 -32 3 -20 -12 13 -15 11 -16 -13 -11 -15 3 -25 1 -22 -3 9 -15
33 -10 97 22 71 35 76 39 54 39 -9 0 -19 -5 -23 -11z"/>
<path d="M3422 3200 c0 -14 2 -19 5 -12 2 6 2 18 0 25 -3 6 -5 1 -5 -13z"/>
<path d="M3500 3180 c0 -5 5 -10 10 -10 6 0 10 5 10 10 0 6 -4 10 -10 10 -5 0
-10 -4 -10 -10z"/>
<path d="M3555 3150 c4 -6 11 -8 16 -5 14 9 11 15 -7 15 -8 0 -12 -5 -9 -10z"/>
<path d="M3500 3129 c-25 -7 -25 -7 -2 -8 13 -1 21 -5 17 -10 -3 -5 -1 -12 5
-16 6 -4 8 -11 5 -16 -4 -5 -1 -9 4 -9 6 0 11 11 11 25 0 14 4 25 9 25 5 0 8
-11 6 -25 l-2 -25 169 0 c124 0 167 3 162 11 -5 8 -33 10 -90 6 -47 -3 -84 -2
-84 3 0 5 19 11 43 13 23 2 -3 5 -58 6 -55 2 -106 3 -114 2 -7 -2 -10 2 -7 7
8 13 -42 20 -74 11z m163 -36 c-18 -2 -48 -2 -65 0 -18 2 -4 4 32 4 36 0 50
-2 33 -4z"/>
<path d="M3823 3123 c9 -2 23 -2 30 0 6 3 -1 5 -18 5 -16 0 -22 -2 -12 -5z"/>
<path d="M4100 3120 c-11 -8 -7 -9 15 -4 37 8 45 14 19 14 -10 0 -26 -5 -34
-10z"/>
<path d="M3397 3114 c-4 -4 -7 -16 -7 -27 0 -16 3 -17 15 -7 10 9 15 9 15 1 0
-6 19 -11 46 -11 25 0 43 4 40 9 -4 5 -22 8 -42 7 -27 -3 -34 0 -29 11 3 10 1
13 -9 10 -8 -3 -16 -1 -18 4 -2 6 -7 7 -11 3z"/>
<path d="M3923 3113 c9 -2 23 -2 30 0 6 3 -1 5 -18 5 -16 0 -22 -2 -12 -5z"/>
<path d="M3838 3103 c12 -2 32 -2 45 0 12 2 2 4 -23 4 -25 0 -35 -2 -22 -4z"/>
<path d="M4048 3103 c7 -3 16 -2 19 1 4 3 -2 6 -13 5 -11 0 -14 -3 -6 -6z"/>
<path d="M3940 3090 c-35 -7 -35 -7 10 -8 25 0 54 3 65 8 17 7 15 8 -10 8 -16
0 -46 -4 -65 -8z"/>
<path d="M3996 2192 c-3 -6 -3 -32 1 -58 5 -37 15 -57 39 -81 30 -31 36 -33
101 -33 47 1 74 6 88 17 l20 16 -20 -8 c-26 -9 -75 -15 -75 -9 0 2 12 9 28 15
l27 11 -40 14 c-45 16 -85 50 -85 73 -1 11 -6 8 -16 -9 -15 -25 -15 -25 -8 -2
l6 24 -22 -22 c-14 -14 -19 -28 -15 -43 4 -15 4 -18 -3 -8 -5 7 -10 34 -10 58
-1 48 -6 61 -16 45z m112 -109 c9 -7 27 -13 41 -13 18 0 22 -3 14 -11 -8 -8
-19 -7 -42 4 -28 14 -32 14 -41 -1 -5 -9 -10 -12 -10 -5 0 6 5 15 10 18 6 4 8
11 4 16 -4 6 -11 6 -20 -2 -17 -14 -18 -5 -2 21 12 18 13 18 21 2 5 -9 17 -23
25 -29z"/>
<path d="M4040 2182 c0 -5 7 -9 15 -9 8 0 15 4 15 9 0 4 -7 8 -15 8 -8 0 -15
-4 -15 -8z"/>
<path d="M1463 2540 c-70 -16 -112 -62 -116 -126 l-2 -39 163 -3 162 -2 0 26
c0 88 -113 167 -207 144z"/>
<path d="M1498 2343 c12 -2 30 -2 40 0 9 3 -1 5 -23 4 -22 0 -30 -2 -17 -4z"/>
<path d="M1618 2313 c6 -2 18 -2 25 0 6 3 1 5 -13 5 -14 0 -19 -2 -12 -5z"/>
<path d="M1232 2238 c10 -55 51 -138 69 -138 6 0 7 5 4 10 -10 16 1 11 16 -7
10 -11 10 -14 2 -9 -7 4 -13 3 -13 -2 0 -16 90 -71 127 -78 100 -19 224 10
297 69 l30 24 -23 12 c-18 10 -27 9 -48 -4 -35 -23 -162 -64 -168 -55 -3 4
-22 11 -42 14 -72 12 -85 14 -91 22 -4 4 0 5 10 1 9 -3 -4 14 -28 38 -24 25
-44 51 -44 60 0 8 -4 15 -10 15 -5 0 -7 -8 -4 -17 3 -10 -2 -6 -11 10 -18 30
-28 36 -18 10 6 -16 4 -16 -9 -5 -14 11 -16 10 -11 -7 3 -12 9 -18 14 -15 5 3
9 1 9 -4 0 -6 -6 -12 -13 -15 -13 -5 -19 15 -20 66 0 21 -2 25 -9 15 -7 -9 -8
-5 -5 15 3 17 0 27 -8 27 -9 0 -10 -13 -3 -52z m83 -89 c-7 -11 -35 -12 -35
-1 0 4 9 8 20 9 11 1 18 -2 15 -8z m65 -45 c0 -1 -9 -2 -19 -1 -11 0 -17 6
-14 14 3 8 -3 13 -13 14 -11 0 -14 3 -6 6 6 2 9 10 6 16 -4 7 5 -1 20 -17 14
-16 26 -30 26 -32z m360 -5 c0 -5 -7 -9 -15 -9 -15 0 -20 12 -9 23 8 8 24 -1
24 -14z m-40 -19 c0 -5 -7 -7 -15 -4 -8 4 -15 8 -15 10 0 2 7 4 15 4 8 0 15
-4 15 -10z m-64 -15 c-11 -8 -25 -15 -30 -15 -6 1 0 7 14 15 32 19 40 18 16 0z
m-149 -11 c-3 -3 -12 -4 -19 -1 -8 3 -5 6 6 6 11 1 17 -2 13 -5z m77 -8 c31 3
31 -4 0 -10 -11 -2 -25 -6 -33 -8 -7 -1 -15 5 -16 15 -2 12 0 15 8 9 7 -5 25
-7 41 -6z m93 -2 c-3 -3 -12 -4 -19 -1 -8 3 -5 6 6 6 11 1 17 -2 13 -5z"/>
<path d="M1270 2275 c0 -5 5 -17 10 -25 5 -8 10 -10 10 -5 0 6 -5 17 -10 25
-5 8 -10 11 -10 5z"/>
<path d="M2740 2539 c-62 -18 -110 -79 -110 -139 l0 -31 160 2 160 1 0 24 c0
98 -109 172 -210 143z"/>
<path d="M2863 2343 c9 -2 23 -2 30 0 6 3 -1 5 -18 5 -16 0 -22 -2 -12 -5z"/>
<path d="M2918 2343 c7 -3 16 -2 19 1 4 3 -2 6 -13 5 -11 0 -14 -3 -6 -6z"/>
<path d="M2544 2185 c-13 -32 51 -106 121 -143 45 -24 61 -27 153 -27 80 0
105 3 112 15 5 8 10 12 10 7 0 -4 14 0 30 8 17 9 28 20 25 24 -7 12 20 33 30
23 4 -4 2 3 -6 15 -13 21 -14 22 -40 5 -15 -9 -28 -21 -29 -27 -3 -18 -33 -45
-43 -38 -6 3 0 10 13 15 37 14 15 21 -25 8 -58 -19 -176 4 -224 43 -7 7 -21
12 -29 12 -8 0 -17 7 -19 15 -4 13 -3 13 6 0 5 -8 13 -11 17 -7 19 18 -43 32
-64 14 -13 -10 -14 -8 -9 13 4 14 4 19 1 13 -9 -21 -27 -15 -21 7 6 23 -1 27
-9 5z m61 -55 c3 -5 1 -10 -4 -10 -6 0 -11 5 -11 10 0 6 2 10 4 10 3 0 8 -4
11 -10z m68 -29 c4 -1 7 -6 7 -12 0 -6 -9 -8 -22 -4 -33 10 -43 22 -16 19 13
-1 26 -3 31 -3z m327 -1 c0 -5 -2 -10 -4 -10 -2 0 -12 -3 -22 -7 -16 -6 -17
-5 -4 10 17 19 30 22 30 7z m-261 -36 c8 -7 -12 -24 -27 -23 -11 0 -13 2 -4 6
10 4 9 9 -5 20 -17 13 -16 14 7 7 14 -3 27 -8 29 -10z m99 -14 l47 -1 -34 -14
c-18 -8 -41 -15 -50 -14 -12 0 -12 2 4 9 l20 9 -20 0 c-11 1 -27 6 -35 12 -12
9 -12 10 3 5 10 -3 40 -6 65 -6z m-68 -14 c0 -3 -4 -8 -10 -11 -5 -3 -10 -1
-10 4 0 6 5 11 10 11 6 0 10 -2 10 -4z"/>
<path d="M3230 2165 c-2 -33 -4 -73 -5 -90 -2 -46 4 -55 41 -55 l34 0 0 81 0
81 -27 -33 -28 -33 -6 54 -6 55 -3 -60z m50 -47 c0 -18 -2 -20 -9 -8 -6 8 -7
18 -5 22 9 14 14 9 14 -14z m-10 -32 c0 -11 -19 -15 -25 -6 -3 5 1 10 9 10 9
0 16 -2 16 -4z"/>
<path d="M3651 2088 l-1 -68 40 0 c39 0 40 1 40 35 0 40 -7 45 -20 13 -8 -22
-9 -22 -9 5 -1 15 -5 27 -11 27 -5 0 -7 -6 -4 -14 3 -8 0 -17 -7 -21 -11 -8
-11 11 3 55 3 8 3 12 1 8 -8 -14 -21 -9 -26 10 -3 9 -5 -13 -6 -50z m29 -48
c0 -5 -2 -10 -4 -10 -3 0 -8 5 -11 10 -3 6 -1 10 4 10 6 0 11 -4 11 -10z"/>
<path d="M3710 2124 c0 -14 4 -23 9 -20 5 3 7 15 4 26 -7 28 -13 25 -13 -6z"/>
<path d="M4605 2541 c-95 -23 -145 -86 -153 -192 -8 -117 39 -205 130 -243
128 -54 258 51 258 206 0 126 -42 196 -133 223 -55 16 -58 16 -102 6z"/>
<path d="M4803 2133 c-18 -18 -28 -33 -23 -33 5 0 17 9 27 19 10 10 25 20 35
22 12 3 13 7 5 14 -9 7 -22 0 -44 -22z"/>
<path d="M4390 2152 c0 -6 22 -32 49 -59 100 -100 251 -112 382 -31 45 27 88
82 75 95 -2 3 -12 -9 -20 -26 -10 -18 -27 -33 -42 -37 -19 -5 -22 -9 -12 -15
10 -7 9 -9 -4 -9 -9 0 -20 5 -23 10 -11 18 -23 11 -18 -10 3 -12 0 -20 -6 -20
-7 0 -9 5 -5 12 5 8 2 9 -12 4 -44 -18 -134 -29 -155 -20 -16 7 -6 10 44 12
61 1 125 17 115 28 -3 2 -17 0 -32 -6 -45 -17 -123 -12 -168 11 -32 16 -43 18
-52 8 -8 -9 -7 -11 6 -6 9 3 19 0 21 -7 4 -10 -1 -12 -16 -9 -22 5 -22 5 -2
-11 19 -16 19 -16 -8 -4 -15 6 -26 16 -24 22 3 6 0 19 -5 29 -6 11 -5 17 2 17
6 0 8 5 4 11 -11 18 -22 -8 -16 -38 3 -18 1 -24 -7 -19 -6 4 -9 12 -6 17 3 5
-2 6 -11 2 -10 -3 -15 -2 -12 3 2 5 -6 20 -19 33 -13 13 -23 19 -23 13z m180
-86 c0 -2 -7 -7 -16 -10 -8 -3 -12 -2 -9 4 6 10 25 14 25 6z"/>
<path d="M4825 2119 c-4 -6 -5 -12 -2 -15 2 -3 7 2 10 11 7 17 1 20 -8 4z"/>
<path d="M5260 2356 c0 -2 7 -7 16 -10 8 -3 12 -2 9 4 -6 10 -25 14 -25 6z"/>
<path d="M5307 2269 c7 -7 15 -10 18 -7 3 3 -2 9 -12 12 -14 6 -15 5 -6 -5z"/>
<path d="M5381 2215 c12 -19 27 -35 34 -35 9 0 11 -7 7 -22 -5 -20 -7 -20 -10
-5 -3 15 -7 11 -21 -15 -24 -44 -84 -78 -139 -78 -26 0 -41 -4 -37 -10 7 -11
-6 -13 -29 -4 -22 8 -20 25 2 19 9 -3 4 1 -13 9 -39 19 -68 20 -35 1 14 -8 19
-14 11 -15 -11 0 -9 -4 5 -15 17 -13 16 -13 -13 -3 -18 7 -28 15 -23 18 5 3
-7 7 -28 7 l-37 1 35 -18 c49 -25 146 -43 196 -36 53 7 95 26 87 39 -4 6 -1 7
6 2 17 -10 58 31 72 72 14 44 3 117 -18 109 -8 -3 -17 -6 -19 -6 -2 0 -4 -5
-4 -11 0 -8 5 -8 15 1 13 10 15 9 15 -9 0 -14 -6 -21 -20 -21 -12 0 -20 7 -20
18 0 9 -9 23 -20 29 -18 12 -18 11 1 -22z m65 -61 c-4 -14 -9 -24 -12 -21 -3
2 -2 17 2 31 3 15 9 25 11 22 3 -3 2 -17 -1 -32z m-21 -53 c-3 -6 -14 -10 -23
-10 -15 1 -15 2 1 6 9 2 17 9 17 15 0 6 3 9 6 5 3 -3 3 -10 -1 -16z m-25 -28
c0 -3 -6 -3 -14 0 -7 3 -20 0 -27 -6 -11 -10 -11 -9 0 5 11 15 41 15 41 1z
m-84 -28 c-33 -17 -72 -20 -81 -4 -5 7 4 8 28 4 21 -4 37 -3 41 4 4 6 15 11
24 11 11 0 6 -6 -12 -15z"/>
<path d="M5077 2096 c-3 -8 0 -17 8 -20 11 -4 25 13 25 30 0 11 -29 2 -33 -10z"/>
<path d="M2075 2250 c4 -14 8 -36 10 -50 1 -14 0 -17 -2 -8 -5 21 -33 46 -33
29 0 -6 5 -11 10 -11 6 0 10 -7 10 -15 0 -26 -18 -16 -29 15 -5 17 -12 30 -15
30 -6 0 21 -90 44 -145 29 -69 33 -75 59 -75 62 0 93 29 103 95 3 17 3 25 1
19 -5 -13 -53 -16 -53 -3 0 5 4 9 8 9 4 0 8 9 8 20 0 26 -5 25 -16 -4 -13 -35
-2 -66 24 -66 20 -1 20 -1 2 -11 -14 -9 -20 -8 -26 1 -5 9 -9 9 -14 1 -10 -15
-29 -14 -23 2 2 6 10 11 17 9 6 -1 10 3 8 10 -3 7 -11 13 -18 13 -15 0 -20 8
-55 95 -14 36 -23 54 -20 40z m0 -89 c3 -5 1 -12 -5 -16 -5 -3 -10 1 -10 9 0
18 6 21 15 7z m44 -55 c0 -6 -3 -5 -6 2 -2 6 -9 10 -14 6 -5 -3 -9 5 -9 18 1
22 1 22 15 4 8 -11 15 -25 14 -30z m91 4 c0 -5 -5 -10 -11 -10 -5 0 -7 5 -4
10 3 6 8 10 11 10 2 0 4 -4 4 -10z m-90 -30 c0 -5 -5 -10 -11 -10 -5 0 -7 5
-4 10 3 6 8 10 11 10 2 0 4 -4 4 -10z"/>
<path d="M2259 2203 c-8 -22 -12 -24 -19 -13 -6 9 -10 10 -10 3 0 -33 29 -20
43 20 10 28 -3 19 -14 -10z"/>
<path d="M2210 2164 c0 -8 5 -12 10 -9 6 4 8 11 5 16 -9 14 -15 11 -15 -7z"/>
<path d="M2150 1600 c0 -35 3 -40 24 -40 32 0 50 24 42 55 -5 20 -13 25 -36
25 -28 0 -30 -2 -30 -40z"/>
<path d="M2372 1581 c-16 -52 -17 -51 23 -51 37 0 37 -1 13 63 -14 37 -23 34
-36 -12z"/>
<path d="M2860 1633 c-14 -9 -28 -22 -33 -27 -14 -19 3 -81 29 -103 33 -30 69
-29 99 2 65 64 -21 180 -95 128z"/>
<path d="M3242 1642 c-16 -2 -22 -8 -18 -19 3 -8 6 -44 6 -79 l0 -65 38 7 c47
8 61 22 69 67 10 63 -29 99 -95 89z"/>
<path d="M4646 1590 c-9 -23 -14 -46 -11 -51 5 -8 65 -14 65 -6 0 1 -8 24 -18
51 l-19 48 -17 -42z"/>
<path d="M1249 1433 c-13 -16 -12 -17 4 -4 9 7 17 15 17 17 0 8 -8 3 -21 -13z"/>
<path d="M5195 1291 c-9 -15 32 -33 63 -28 l27 4 -28 2 c-15 0 -30 8 -33 16
-7 17 -20 20 -29 6z"/>
<path d="M2719 583 c-13 -15 -12 -15 11 -3 34 17 36 20 18 20 -9 0 -22 -7 -29
-17z"/>
<path d="M3845 6513 c151 -28 440 -104 550 -145 271 -101 572 -262 787 -421
15 -11 30 -18 33 -15 13 13 -297 205 -468 292 -249 126 -436 194 -712 260 -85
20 -234 46 -255 45 -8 -1 21 -8 65 -16z"/>
<path d="M242 4080 c0 -14 2 -19 5 -12 2 6 2 18 0 25 -3 6 -5 1 -5 -13z"/>
<path d="M6486 3302 c-4 -24 -6 -46 -2 -49 8 -8 18 42 14 68 -3 18 -6 13 -12
-19z"/>
<path d="M6461 2924 c0 -11 3 -14 6 -6 3 7 2 16 -1 19 -3 4 -6 -2 -5 -13z"/>
<path d="M240 2674 c0 -14 16 -92 26 -123 3 -8 7 -11 10 -8 6 5 -25 147 -32
147 -2 0 -4 -7 -4 -16z"/>
<path d="M6385 2585 c-14 -68 -15 -80 -6 -65 10 18 24 90 17 90 -3 0 -8 -11
-11 -25z"/>
<path d="M6362 2480 c0 -14 2 -19 5 -12 2 6 2 18 0 25 -3 6 -5 1 -5 -13z"/>
<path d="M6341 2404 c0 -11 3 -14 6 -6 3 7 2 16 -1 19 -3 4 -6 -2 -5 -13z"/>
<path d="M6318 2345 c-3 -14 -1 -25 3 -25 5 0 9 4 9 9 0 5 3 16 6 25 3 9 2 16
-4 16 -5 0 -12 -11 -14 -25z"/>
<path d="M6302 2290 c0 -14 2 -19 5 -12 2 6 2 18 0 25 -3 6 -5 1 -5 -13z"/>
<path d="M746 1508 c4 -7 22 -32 41 -55 18 -23 33 -45 33 -49 0 -6 86 -112
101 -124 3 -3 28 -32 55 -65 26 -33 70 -82 96 -109 26 -26 48 -51 50 -55 2 -3
53 -51 113 -106 61 -55 112 -103 113 -107 2 -5 10 -8 18 -8 8 0 17 -7 20 -15
4 -8 13 -15 20 -15 8 0 17 -7 20 -15 4 -8 12 -15 20 -15 8 0 14 -4 14 -10 0
-5 7 -10 16 -10 9 0 12 -5 8 -12 -4 -7 -3 -8 5 -4 6 4 14 0 17 -8 3 -9 10 -16
16 -16 5 0 21 -11 36 -25 15 -14 35 -25 44 -25 10 0 18 -4 18 -9 0 -9 18 -21
80 -53 14 -7 43 -25 64 -40 21 -16 45 -28 53 -28 8 0 11 -5 7 -12 -4 -7 -3 -8
5 -4 6 4 19 2 27 -5 8 -6 17 -9 20 -6 3 3 -14 16 -38 28 -23 13 -50 28 -59 34
-27 17 -72 47 -99 65 -14 9 -41 25 -60 35 -19 10 -37 21 -40 24 -3 3 -27 22
-55 41 -27 19 -56 40 -63 47 -7 7 -41 34 -75 60 -34 26 -81 64 -104 85 -24 21
-47 38 -53 38 -5 0 -10 7 -10 15 0 8 -3 15 -7 15 -15 0 -242 245 -303 326 -21
28 -44 57 -52 65 -7 8 -26 33 -41 57 -15 24 -34 45 -42 49 -8 3 -15 11 -15 19
0 8 -5 14 -11 14 -5 0 -7 -6 -3 -12z"/>
<path d="M5354 978 l-19 -23 23 19 c12 11 22 21 22 23 0 8 -8 2 -26 -19z"/>
<path d="M1890 490 c0 -5 5 -10 11 -10 5 0 7 5 4 10 -3 6 -8 10 -11 10 -2 0
-4 -4 -4 -10z"/>
<path d="M2010 430 c8 -5 20 -10 25 -10 6 0 3 5 -5 10 -8 5 -19 10 -25 10 -5
0 -3 -5 5 -10z"/>
<path d="M2064 406 c11 -9 24 -16 30 -16 12 0 7 5 -24 19 -24 11 -24 11 -6 -3z"/>
<path d="M2140 370 c8 -5 22 -10 30 -10 13 0 13 1 0 10 -8 5 -22 10 -30 10
-13 0 -13 -1 0 -10z"/>
<path d="M2210 340 c14 -11 31 -20 38 -20 22 0 4 17 -30 29 l-33 11 25 -20z"/>
<path d="M2310 300 c8 -5 22 -10 30 -10 13 0 13 1 0 10 -8 5 -22 10 -30 10
-13 0 -13 -1 0 -10z"/>
<path d="M2388 283 c6 -2 10 -8 7 -13 -3 -4 6 -10 20 -12 33 -7 32 10 -1 22
-25 10 -50 13 -26 3z"/>
<path d="M2479 243 c18 -8 43 -12 55 -10 16 3 15 5 -6 6 -16 0 -28 5 -28 10 0
5 -12 8 -27 8 -28 0 -28 0 6 -14z"/>
<path d="M2585 216 c16 -7 36 -11 44 -8 8 3 12 1 9 -4 -3 -5 17 -10 45 -11 29
-1 53 -6 55 -12 2 -6 18 -8 35 -5 26 3 28 2 12 -5 -25 -12 -3 -14 46 -4 29 6
17 10 -81 28 -63 12 -133 25 -155 28 l-40 7 30 -14z"/>
<path d="M3900 190 c-14 -4 -43 -9 -65 -10 l-40 -2 30 -9 c32 -10 118 -2 110
11 -2 4 8 5 23 3 21 -4 24 -2 12 6 -17 12 -34 12 -70 1z"/>
<path d="M2920 157 c30 -6 58 -14 61 -20 4 -5 34 -6 75 -1 l69 8 -105 12
c-125 15 -177 15 -100 1z m97 -13 c-3 -3 -12 -4 -19 -1 -8 3 -5 6 6 6 11 1 17
-2 13 -5z"/>
<path d="M3695 163 c-37 -3 -45 -7 -35 -14 11 -8 3 -9 -27 -6 -24 3 -43 2 -43
-3 0 -4 -89 -5 -199 -2 -133 3 -200 1 -205 -6 -4 -7 69 -9 236 -7 239 3 332
10 323 25 -3 5 14 6 37 4 32 -3 38 -2 23 5 -21 10 -26 10 -110 4z"/>
</g>
</svg>
